<svg width="750" height="500" viewBox="0 0 750 500" fill="none" xmlns="http://www.w3.org/2000/svg">
<path d="M716.76 319.14L711.66 310.14C714.799 305.038 715.917 298.946 714.792 293.061C713.668 287.177 710.384 281.926 705.586 278.34C700.787 274.754 694.821 273.092 688.859 273.681C682.897 274.27 677.371 277.067 673.367 281.523C669.363 285.979 667.17 291.772 667.22 297.762C667.269 303.753 669.557 309.508 673.634 313.897C677.711 318.287 683.282 320.993 689.252 321.484C695.223 321.975 701.161 320.215 705.9 316.55L716.76 319.14Z" fill="#EBEBEB"/>
<path d="M191 52.2601C192.765 51.4817 194.263 50.2028 195.308 48.5818C196.353 46.9607 196.9 45.0688 196.88 43.1401C196.88 37.6901 192.77 33.2601 187.67 33.2301C182.57 33.2001 178.4 37.6101 178.38 43.0501C178.341 44.9957 178.88 46.909 179.929 48.5484C180.977 50.1877 182.488 51.4794 184.27 52.2601C170.03 54.4101 170.68 69.8801 170.68 69.8801L204.34 70.0301C204.34 70.0301 205.15 54.4001 191 52.2601Z" fill="#EBEBEB"/>
<path d="M85.5406 378.44C81.0005 375.598 75.8688 373.836 70.5406 373.29C68.1006 373.04 65.4206 373.11 63.4606 374.59C63.2356 374.721 63.0494 374.91 62.9211 375.136C62.7928 375.363 62.7271 375.62 62.7306 375.88C62.8477 376.252 63.0966 376.569 63.4306 376.77C69.5206 381.41 78.7306 382 85.5206 378.44" fill="#E0E0E0"/>
<path d="M85.1506 378C81.6837 375.453 78.4478 372.605 75.4806 369.49C72.5068 366.354 70.416 362.486 69.4206 358.28C69.225 357.656 69.1666 356.997 69.2494 356.348C69.3323 355.699 69.5544 355.075 69.9006 354.52C77.6106 360.52 83.6606 368.33 85.1506 378Z" fill="#E0E0E0"/>
<path d="M85.4599 378.38C84.744 374.175 84.805 369.874 85.6399 365.69C86.4982 361.472 88.9112 357.731 92.3999 355.21C93.7299 358.32 93.1599 361.91 92.2199 365.21C90.7671 370.249 88.5042 375.018 85.5199 379.33" fill="#E0E0E0"/>
<path d="M92.9999 391.92C88.4199 392.48 84.4199 394.92 80.9999 398C77.5544 401.132 75.1559 405.248 74.1299 409.79C78.6299 409.51 82.4499 406.34 85.2099 402.79C87.9699 399.24 89.9099 395.32 92.9999 392" fill="#E0E0E0"/>
<path d="M94.6604 394.09C92.854 389.507 92.2206 384.546 92.8178 379.656C93.4151 374.766 95.224 370.103 98.0804 366.09C100.69 375.38 99.7304 385.88 94.6604 394.09Z" fill="#E0E0E0"/>
<path d="M104.64 406C100.447 405.739 96.2701 406.717 92.6287 408.811C88.9873 410.906 86.0422 414.025 84.1597 417.78C83.9097 418.29 83.6897 418.94 84.0297 419.39C84.2058 419.561 84.4205 419.686 84.6556 419.756C84.8907 419.826 85.1391 419.837 85.3797 419.79C89.3797 419.53 92.9997 417.1 95.9497 414.34C98.8997 411.58 101.47 408.34 104.73 405.99" fill="#E0E0E0"/>
<path d="M104.32 405.33C102.171 398.41 102.039 391.022 103.94 384.03C104.69 381.28 105.94 378.4 108.49 377.11C108.59 377.043 108.703 376.997 108.822 376.977C108.941 376.956 109.063 376.96 109.18 376.99C109.388 377.096 109.546 377.279 109.62 377.5C110.474 379.418 110.842 381.516 110.69 383.61C110.527 385.697 110.192 387.767 109.69 389.8C108.89 393.58 108.46 397.64 106.39 400.9C105.901 401.686 105.461 402.501 105.07 403.34C104.68 404.17 104.68 404.46 104.32 405.12" fill="#E0E0E0"/>
<path d="M130.75 409.27C128.75 401.82 130.87 392.79 135.57 386.68C135.91 386.23 136.37 385.75 136.93 385.8C137.8 385.88 138.02 387.04 137.93 387.9C137.578 395.562 135.072 402.969 130.7 409.27" fill="#E0E0E0"/>
<path d="M133.13 410.9C142.18 413.25 152.57 410.96 160.13 405.41C155.619 403.147 150.464 402.514 145.54 403.62C140.66 404.74 136.21 406.92 133.17 410.9" fill="#E0E0E0"/>
<path d="M135.141 405.94C140.211 397.67 149.931 392.28 159.611 391.79C158.491 395.73 155.261 398.79 151.611 400.64C147.961 402.49 143.881 403.29 139.861 404.07C138.301 404.38 136.161 404.71 135.141 405.94Z" fill="#E0E0E0"/>
<path d="M131.26 381.87C132.794 377.215 133.84 372.412 134.38 367.54C134.76 362.66 134.07 357.54 131.53 353.37C126.8 362.53 126.32 373.24 131.11 382.37" fill="#E0E0E0"/>
<path d="M147.19 373.82C152.73 363.75 164.03 355.72 175.45 354.59C171.05 365.59 159.02 374.05 147.19 373.82Z" fill="#E0E0E0"/>
<path d="M143.71 375.79C151.97 377.05 159 382.32 166.71 385.52C168.327 386.298 170.119 386.643 171.91 386.52C172.742 386.51 173.552 386.244 174.229 385.759C174.905 385.275 175.417 384.594 175.695 383.809C175.973 383.024 176.004 382.173 175.783 381.37C175.562 380.568 175.1 379.852 174.46 379.32C173.366 378.312 172.08 377.533 170.68 377.03C162.28 373.53 153.26 373.44 144.41 375.56" fill="#E0E0E0"/>
<path d="M138.931 381.58C140.801 382.11 141.441 383.08 142.931 384.34C147.978 388.642 153.949 391.722 160.381 393.34C161.041 393.5 161.921 393.57 162.251 392.96C162.581 392.35 162.171 391.8 161.801 391.33C158.994 388.043 155.353 385.573 151.261 384.18C147.261 382.68 143.751 380.88 138.941 381.26" fill="#E0E0E0"/>
<path d="M133.54 346.6C136.924 349.723 140.924 352.104 145.283 353.588C149.642 355.073 154.263 355.629 158.85 355.22C159.275 355.225 159.687 355.076 160.01 354.8C160.64 354.11 159.88 353.04 159.14 352.46C151.7 346.66 142.68 344.25 133.54 346.6Z" fill="#E0E0E0"/>
<path d="M139.931 344.26C144.413 340.964 149.611 338.773 155.101 337.868C160.591 336.962 166.217 337.367 171.521 339.05C167.388 342.88 162.087 345.208 156.471 345.66C150.918 346.166 145.319 345.692 139.931 344.26Z" fill="#E0E0E0"/>
<path d="M137.39 328.19C136.66 320.76 137.14 314.9 136.62 307.44C136.62 306.84 136.45 306.12 135.89 305.91C135.12 305.61 134.47 306.56 134.22 307.36C133.14 310.814 132.864 314.469 133.411 318.046C133.959 321.623 135.316 325.028 137.38 328" fill="#E0E0E0"/>
<path d="M136.86 329C141.715 325.855 145.896 321.776 149.16 317C151.59 313.68 153.64 309.69 153.09 305.61C151.379 305.657 149.698 306.076 148.165 306.837C146.631 307.599 145.282 308.685 144.21 310.02C142.097 312.712 140.558 315.809 139.69 319.12C138.69 322.39 138.02 325.75 136.86 328.96" fill="#E0E0E0"/>
<path d="M149 325.65C160.077 321.554 170.332 315.509 179.28 307.8C175.66 306.34 171.52 307.21 167.91 308.67C159.64 312.01 152.91 317.67 148.84 325.57" fill="#E0E0E0"/>
<path d="M140.26 333.08C145.85 333.69 151.53 334.08 157.07 333.16C162.61 332.24 167.68 330.09 172.77 327.94C173.216 327.814 173.598 327.525 173.84 327.13C173.919 326.894 173.924 326.641 173.856 326.402C173.789 326.163 173.651 325.95 173.46 325.79C173.066 325.484 172.608 325.268 172.12 325.16C166.58 323.61 160.6 324.34 155.12 326.16C149.929 327.932 144.938 330.245 140.23 333.06" fill="#E0E0E0"/>
<path d="M108.34 346.86C104.52 339.16 104.77 330.18 108.07 322.24C110.39 325.77 110.67 330.24 110.24 334.48C109.81 338.72 108.54 343.01 108.46 347.24" fill="#E0E0E0"/>
<path d="M93.0998 339.17C88.3287 339.104 83.596 340.033 79.2038 341.897C74.8116 343.762 70.8562 346.522 67.5898 350C72.3398 350.75 77.2398 349.52 81.5898 347.41C85.8502 345.156 89.8708 342.476 93.5898 339.41" fill="#E0E0E0"/>
<path d="M82.8604 335.75C78.2004 335.37 73.7203 334.75 69.2403 336.17C64.7603 337.59 60.6804 340.65 58.8604 344.97C63.256 345.324 67.6659 344.491 71.6303 342.56C75.5681 340.628 79.3263 338.349 82.8604 335.75Z" fill="#E0E0E0"/>
<path d="M98.0004 335.9C93.8004 333.16 89.5004 330.36 84.6204 329.22C79.7404 328.08 74.0904 328.93 70.6904 332.61C74.6304 334.92 79.4304 335.2 84.0104 335.19C88.5904 335.18 94.2004 335.14 98.5204 336.67" fill="#E0E0E0"/>
<path d="M98.0504 336.13C90.8904 329.13 88.1704 316.45 91.0504 306.83C96.7082 315.491 99.1825 325.847 98.0504 336.13Z" fill="#E0E0E0"/>
<path d="M117.75 316.19C119.1 313.05 120.05 309.75 121.26 306.56C122.366 303.314 124.061 300.301 126.26 297.67C128.506 295.038 131.694 293.39 135.14 293.08C134.039 297.926 131.938 302.489 128.973 306.477C126.008 310.465 122.243 313.79 117.92 316.24" fill="#E0E0E0"/>
<path d="M114.19 320.35C111.95 317.27 109.37 313.09 106.33 310.79C103.29 308.49 99.3304 307.11 95.6504 307.99C97.5685 311.349 100.243 314.214 103.461 316.36C106.679 318.505 110.352 319.871 114.19 320.35Z" fill="#E0E0E0"/>
<path d="M114.9 316.45C113.294 312.778 112.107 308.937 111.36 305C110.626 301.028 111.26 296.925 113.16 293.36C117.09 300.8 118.36 308.78 115.1 316.53" fill="#E0E0E0"/>
<path d="M117.79 293.36C120.01 285.99 126.79 280.57 134.05 278.08C134.951 277.708 135.929 277.56 136.9 277.65C137.384 277.705 137.842 277.901 138.215 278.214C138.589 278.527 138.862 278.943 139 279.41C139.27 280.66 138.23 281.78 137.26 282.62C131.563 287.48 124.94 291.134 117.79 293.36Z" fill="#E0E0E0"/>
<path d="M117.87 287.34C118.15 282.59 118.45 277.77 119.99 273.26C121.53 268.75 124.52 264.54 128.85 262.57C129.59 267.37 127.47 272.14 124.92 276.27C122.37 280.4 119.28 284.27 117.75 288.9" fill="#E0E0E0"/>
<path d="M117.75 290.61C115.91 285.24 115.75 278.42 112.5 273.74C110.25 270.47 106.65 268.24 104.72 264.74C103.546 268.064 103.708 271.713 105.17 274.92C106.652 278.092 108.684 280.976 111.17 283.44C113.55 285.98 115.59 287.89 117.8 290.58" fill="#E0E0E0"/>
<path d="M117.79 448.78C117.64 448.78 117.52 412.95 117.51 368.78C117.5 324.61 117.61 288.78 117.75 288.78C117.89 288.78 118.02 324.6 118.03 368.78C118.04 412.96 117.93 448.78 117.79 448.78Z" fill="#E0E0E0"/>
<path d="M149.1 341.45C148.667 341.663 148.215 341.834 147.75 341.96L144 343.21C140.88 344.27 136.58 345.81 131.92 347.72C127.26 349.63 122.92 351.31 120.48 353.46C119.496 354.273 118.709 355.299 118.18 356.46C117.82 357.3 117.76 357.82 117.71 357.81C117.66 357.8 117.71 357.68 117.71 357.43C117.765 357.089 117.852 356.755 117.97 356.43C118.435 355.18 119.205 354.067 120.21 353.19C121.716 351.921 123.401 350.879 125.21 350.1C127.21 349.17 129.4 348.21 131.74 347.25C136.41 345.33 140.74 343.84 143.9 342.86C145.48 342.37 146.77 342 147.66 341.76C148.13 341.615 148.612 341.512 149.1 341.45Z" fill="#E0E0E0"/>
<path d="M159.36 316.24C159.36 316.24 159.24 316.39 158.98 316.65L157.83 317.73L153.54 321.62L139.25 334.34C133.68 339.34 128.86 344.05 125.52 347.62C123.85 349.41 122.52 350.88 121.63 351.91L120.63 353.1C120.518 353.244 120.391 353.375 120.25 353.49C120.328 353.323 120.429 353.168 120.55 353.03C120.77 352.75 121.09 352.32 121.55 351.78C122.4 350.71 123.68 349.19 125.32 347.37C129.612 342.678 134.148 338.215 138.91 334C144.51 329.05 149.6 324.6 153.3 321.39L157.7 317.61L158.91 316.61C159.044 316.469 159.195 316.345 159.36 316.24Z" fill="#E0E0E0"/>
<path d="M133.23 339.39C133.09 339.33 134.23 336.64 135.41 333.24C136.59 329.84 137.14 326.96 137.29 326.99C137.162 329.186 136.693 331.348 135.9 333.4C135.406 334.868 134.828 336.307 134.17 337.71C133.943 338.314 133.626 338.88 133.23 339.39Z" fill="#E0E0E0"/>
<path d="M117.82 361.08C117.502 360.775 117.214 360.44 116.96 360.08L114.76 357.26C112.91 354.87 110.35 351.57 107.49 347.96C104.63 344.35 101.99 341.11 100.08 338.76L97.8298 336C97.5371 335.672 97.2759 335.317 97.0498 334.94C97.3945 335.213 97.7065 335.526 97.9798 335.87C98.5598 336.49 99.3698 337.41 100.36 338.55C102.36 340.83 105.02 344.04 107.89 347.66C110.76 351.28 113.28 354.61 115.05 357.06C115.94 358.28 116.65 359.28 117.12 359.98C117.391 360.321 117.626 360.69 117.82 361.08Z" fill="#E0E0E0"/>
<path d="M111 352.26C109.621 350.727 108.636 348.88 108.13 346.88C107.589 345.124 107.369 343.285 107.48 341.45H107.7C107.6 341.87 107.53 342.08 107.49 342.08C107.49 342.08 107.49 341.84 107.49 341.41H107.72C107.833 343.198 108.138 344.968 108.63 346.69C109.279 348.604 110.072 350.466 111 352.26Z" fill="#E0E0E0"/>
<path d="M102.09 341.12C101.478 340.643 100.805 340.25 100.09 339.95C98.2848 339.413 96.3868 339.263 94.5198 339.51C92.6247 339.653 90.7448 339.954 88.8998 340.41C88.143 340.647 87.3713 340.834 86.5898 340.97C87.2786 340.554 88.0274 340.247 88.8098 340.06C90.6501 339.493 92.549 339.137 94.4698 339C96.4085 338.744 98.3804 338.956 100.22 339.62C101.002 339.88 101.666 340.413 102.09 341.12Z" fill="#E0E0E0"/>
<path d="M100 338.41C100 338.49 98.83 337.94 96.92 337.29C94.4376 336.451 91.8617 335.921 89.25 335.71C86.6335 335.518 84.0032 335.652 81.42 336.11C79.42 336.47 78.24 336.84 78.21 336.75C78.4669 336.598 78.7426 336.481 79.03 336.4C79.7905 336.14 80.5651 335.923 81.35 335.75C86.577 334.634 92.0164 335.068 97 337C97.7545 337.285 98.4894 337.619 99.2 338C99.4857 338.096 99.7554 338.234 100 338.41Z" fill="#E0E0E0"/>
<path d="M117.751 327C116.84 324.45 116.092 321.845 115.511 319.2C114.761 316.6 114.18 313.955 113.771 311.28C114.675 313.832 115.423 316.437 116.011 319.08C116.76 321.68 117.341 324.325 117.751 327Z" fill="#E0E0E0"/>
<path d="M117.89 327C117.174 325.387 116.345 323.827 115.41 322.33C114.351 320.923 113.122 319.654 111.75 318.55C112.269 318.684 112.751 318.934 113.16 319.28C114.197 320.041 115.1 320.971 115.83 322.03C116.944 323.475 117.655 325.19 117.89 327Z" fill="#E0E0E0"/>
<path d="M117.79 429.68C117.73 429.68 117.63 428.81 117.22 427.29C116.627 425.151 115.826 423.074 114.83 421.09C112.35 416.03 107.83 409.62 102.12 403.19C99.2897 400 96.5397 396.9 94.1997 394C92.105 391.427 90.2126 388.696 88.5397 385.83C87.4117 383.894 86.4547 381.863 85.6797 379.76C85.4097 379.02 85.2197 378.43 85.1097 378.03C85.0373 377.83 84.9902 377.622 84.9697 377.41C84.9697 377.41 85.2697 378.23 85.8597 379.69C86.7086 381.746 87.7114 383.735 88.8597 385.64C90.5713 388.46 92.4828 391.154 94.5797 393.7C96.9297 396.6 99.6797 399.64 102.52 402.88C108.26 409.32 112.76 415.82 115.17 420.96C116.147 422.976 116.905 425.092 117.43 427.27C117.59 428.05 117.7 428.66 117.74 429.07C117.775 429.272 117.792 429.476 117.79 429.68Z" fill="#E0E0E0"/>
<path d="M146.08 397.72C145.605 398.028 145.111 398.305 144.6 398.55C143.261 399.309 141.975 400.158 140.75 401.09C138.949 402.493 137.261 404.035 135.7 405.7C133.93 407.57 132.1 409.75 130.24 412.08C126.51 416.75 123.02 420.89 120.94 424.19C119.88 425.83 119.11 427.19 118.6 428.19C118.09 429.19 117.82 429.7 117.79 429.69C117.808 429.544 117.852 429.401 117.92 429.27C118.03 429 118.18 428.6 118.42 428.1C119.07 426.692 119.808 425.326 120.63 424.01C122.63 420.63 126.11 416.43 129.83 411.76C131.7 409.43 133.55 407.25 135.35 405.38C136.945 403.714 138.678 402.185 140.53 400.81C141.793 399.89 143.131 399.077 144.53 398.38C145.02 398.14 145.43 397.98 145.69 397.87C145.95 397.76 146.07 397.7 146.08 397.72Z" fill="#E0E0E0"/>
<path d="M146.63 408.09C145.599 408.315 144.553 408.465 143.5 408.54C140.983 408.798 138.496 409.29 136.07 410.01C133.668 410.786 131.415 411.966 129.41 413.5C127.88 414.68 127.15 415.66 127.08 415.61C127.194 415.345 127.353 415.101 127.55 414.89C128.035 414.276 128.581 413.713 129.18 413.21C131.167 411.56 133.452 410.304 135.91 409.51C138.368 408.781 140.901 408.335 143.46 408.18C144.512 408.052 145.573 408.022 146.63 408.09Z" fill="#E0E0E0"/>
<path d="M128 414.47C127.83 414.38 129.25 412.22 130.34 409.32C131.43 406.42 131.61 403.82 131.79 403.85C131.891 404.406 131.891 404.975 131.79 405.53C131.64 406.894 131.335 408.236 130.88 409.53C130.403 410.804 129.793 412.024 129.06 413.17C128.775 413.655 128.417 414.093 128 414.47Z" fill="#E0E0E0"/>
<path d="M155.241 369.89C155.083 369.993 154.916 370.081 154.741 370.15L153.271 370.82C152.621 371.1 151.841 371.45 150.961 371.92C150.081 372.39 149.041 372.84 147.961 373.49L146.251 374.49C145.661 374.83 145.071 375.24 144.451 375.63C143.191 376.39 141.931 377.33 140.581 378.29C137.719 380.461 135.018 382.838 132.501 385.4C130.02 388 127.737 390.781 125.671 393.72C124.761 395.1 123.861 396.4 123.141 397.72C122.771 398.36 122.381 398.96 122.061 399.56C121.741 400.16 121.441 400.75 121.151 401.31C120.541 402.4 120.151 403.45 119.681 404.31C119.211 405.17 118.921 406 118.681 406.66L118.061 408.15C118 408.33 117.916 408.502 117.811 408.66C117.834 408.474 117.884 408.292 117.961 408.12C118.101 407.71 118.271 407.21 118.491 406.59C118.758 405.778 119.069 404.98 119.421 404.2C119.831 403.28 120.241 402.2 120.831 401.1C121.121 400.54 121.411 399.95 121.721 399.33C122.031 398.71 122.411 398.11 122.781 397.46C123.491 396.16 124.381 394.85 125.291 393.46C129.377 387.47 134.449 382.216 140.291 377.92C141.661 376.92 142.941 376.03 144.221 375.27C144.851 374.89 145.451 374.49 146.051 374.16L147.791 373.21C148.881 372.58 149.931 372.13 150.791 371.69C151.651 371.25 152.491 370.93 153.151 370.69L154.661 370.11C154.842 370.009 155.037 369.935 155.241 369.89Z" fill="#E0E0E0"/>
<path d="M132.851 384.89C133.053 384.164 133.484 383.522 134.081 383.06C135.468 381.851 137.24 381.175 139.081 381.15C140.869 381.139 142.643 381.478 144.301 382.15C145.013 382.384 145.686 382.721 146.301 383.15C145.584 383.01 144.881 382.805 144.201 382.54C142.566 381.977 140.849 381.69 139.121 381.69C137.403 381.72 135.741 382.302 134.381 383.35C133.831 383.823 133.32 384.338 132.851 384.89Z" fill="#E0E0E0"/>
<path d="M129.5 388.34C130.165 386.881 130.639 385.341 130.91 383.76C131.008 382.157 130.904 380.548 130.6 378.97C130.89 379.369 131.088 379.826 131.18 380.31C131.789 382.619 131.503 385.073 130.38 387.18C129.94 388 129.55 388.38 129.5 388.34Z" fill="#E0E0E0"/>
<path d="M93 434.81C93.77 448.5 97.9 462.43 104.25 476.51H131.84C137.9 462.57 141.74 448.66 142.42 434.81H93Z" fill="#E0E0E0"/>
<path d="M138 457C138 457.14 128.91 457.25 117.7 457.25C106.49 457.25 97.4004 457.11 97.4004 457C97.4004 456.89 106.48 456.74 117.69 456.74C128.9 456.74 138 456.82 138 457Z" fill="#FAFAFA"/>
<path d="M137.37 461.93C137.37 462.07 128.85 462.19 118.37 462.19C107.89 462.19 99.3701 462.07 99.3701 461.93C99.3701 461.79 107.89 461.67 118.37 461.67C128.85 461.67 137.37 461.78 137.37 461.93Z" fill="#FAFAFA"/>
<path d="M104.731 443.8C105.077 448.03 105.077 452.28 104.731 456.51C104.384 452.28 104.384 448.03 104.731 443.8Z" fill="#FAFAFA"/>
<path d="M119.52 443.8C119.866 448.183 119.866 452.587 119.52 456.97C119.173 452.587 119.173 448.183 119.52 443.8Z" fill="#FAFAFA"/>
<path d="M133.401 443.69C133.747 448.16 133.747 452.65 133.401 457.12C133.054 452.65 133.054 448.16 133.401 443.69Z" fill="#FAFAFA"/>
<path d="M141.58 443.8C141.58 443.94 130.93 444.06 117.78 444.06C104.63 444.06 94 443.94 94 443.8C94 443.66 104.65 443.54 117.8 443.54C130.95 443.54 141.58 443.66 141.58 443.8Z" fill="#FAFAFA"/>
<path d="M676.25 61.3202C676.255 57.3499 675.345 53.4319 673.589 49.8708C671.834 46.3097 669.281 43.2014 666.129 40.7875C662.976 38.3736 659.31 36.7192 655.414 35.9528C651.518 35.1865 647.499 35.3288 643.667 36.3688C639.835 37.4089 636.295 39.3185 633.321 41.9493C630.348 44.5801 628.021 47.8612 626.522 51.5376C625.023 55.214 624.391 59.1866 624.677 63.1466C624.963 67.1066 626.159 70.9474 628.17 74.3703L628.24 74.4602C629.24 76.1302 630.47 77.3302 631.73 79.0802L646.73 98.9403C647.165 99.516 647.727 99.983 648.372 100.305C649.018 100.626 649.729 100.794 650.45 100.794C651.172 100.794 651.883 100.626 652.528 100.305C653.174 99.983 653.736 99.516 654.17 98.9403L668.91 79.4103C670.254 77.8158 671.506 76.1464 672.66 74.4103L672.72 74.3402C675.037 70.3926 676.255 65.8973 676.25 61.3202ZM650.43 72.5602C648.184 72.5602 645.987 71.894 644.119 70.6457C642.251 69.3975 640.795 67.6233 639.935 65.5475C639.075 63.4718 638.85 61.1876 639.289 58.984C639.727 56.7804 640.809 54.7562 642.398 53.1675C643.986 51.5788 646.01 50.4969 648.214 50.0585C650.418 49.6202 652.702 49.8452 654.778 50.705C656.853 51.5648 658.628 53.0208 659.876 54.889C661.124 56.7571 661.79 58.9535 661.79 61.2002C661.792 62.6924 661.499 64.1702 660.928 65.5491C660.358 66.9279 659.521 68.1808 658.466 69.2359C657.411 70.291 656.158 71.1278 654.779 71.6982C653.4 72.2686 651.923 72.5616 650.43 72.5602Z" fill="#F5F5F5"/>
<path d="M156.624 143.242L58.1504 160.588L74.9308 255.852L173.405 238.506L156.624 143.242Z" fill="#F5F5F5"/>
<path d="M81.1104 246.36L99.7204 192.54L127.52 219.95L138.12 200.93L164.31 231.71L81.1104 246.36Z" fill="#E0E0E0"/>
<path d="M129.81 177.41C130.056 178.81 129.88 180.252 129.306 181.553C128.733 182.854 127.786 183.955 126.586 184.718C125.386 185.481 123.988 185.871 122.566 185.839C121.145 185.807 119.765 185.354 118.601 184.538C117.436 183.722 116.54 182.579 116.026 181.254C115.511 179.928 115.401 178.48 115.709 177.092C116.017 175.704 116.73 174.439 117.757 173.456C118.784 172.473 120.08 171.817 121.48 171.57C123.359 171.242 125.291 171.672 126.853 172.767C128.415 173.862 129.478 175.532 129.81 177.41Z" fill="#E0E0E0"/>
<g opacity="0.3">
<path d="M164.36 232C164.317 231.876 164.284 231.749 164.26 231.62C164.26 231.33 164.14 230.97 164.05 230.51C163.86 229.51 163.59 228.07 163.25 226.23L160.25 210.07C157.75 196.16 154.19 176.36 149.92 152.58L150.39 152.92L67.2499 167.6L67.6299 167.06V167.13V167.21V167.38L67.6899 167.72L67.8099 168.4L68.0399 169.76L68.5199 172.46C68.8399 174.27 69.1499 176.06 69.5199 177.84C70.1466 181.407 70.7666 184.943 71.3799 188.45C72.6099 195.45 73.8099 202.31 74.9899 208.98C77.3199 222.33 79.5199 234.98 81.5499 246.55L81.0699 246.21L141.27 235.83L158.27 232.95L162.78 232.2L163.95 232.02L164.37 231.97C164.254 232.014 164.133 232.044 164.01 232.06L162.89 232.28L158.48 233.11L141.62 236.19L81.2299 247L80.8199 247.08L80.7499 246.66C78.6899 235.06 76.4499 222.45 74.0899 209.11L70.4599 188.58C69.8399 185.08 69.2166 181.547 68.5899 177.98C68.2766 176.187 67.9433 174.393 67.5899 172.6L67.1199 169.89L66.8799 168.54L66.7599 167.86L66.6999 167.52V167.35V167.26V167.2C66.3599 167.68 67.1699 166.51 67.0999 166.63L150.3 152.05L150.7 151.98L150.77 152.38C154.9 176.3 158.33 196.21 160.77 210.2C161.94 217.1 162.86 222.54 163.5 226.3C163.8 228.12 164.03 229.53 164.19 230.52C164.26 230.97 164.32 231.32 164.36 231.59C164.371 231.726 164.371 231.864 164.36 232Z" fill="#E0E0E0"/>
</g>
<path d="M65.2262 59.2366L57.8047 97.4526L114.505 108.464L121.927 70.2478L65.2262 59.2366Z" fill="#F5F5F5"/>
<path d="M122 70.7502C121.806 70.9093 121.595 71.0468 121.37 71.1602L119.52 72.2402L112.68 76.1102L90.0003 88.7702L89.8103 88.8702L89.6703 88.7102L89.3303 88.3102L72.3303 68.1802L67.1503 62.0002L65.7803 60.3102C65.6132 60.1176 65.4595 59.9138 65.3203 59.7002C65.5194 59.86 65.7005 60.0411 65.8603 60.2402L67.3003 61.9002L72.5503 67.9002L89.7003 88.0002L90.0403 88.4002L89.7103 88.3402L112.53 75.8202L119.46 72.0902L121.35 71.0902C121.56 70.9632 121.777 70.8496 122 70.7502Z" fill="#E0E0E0"/>
<path d="M57.9005 98.0003C57.8105 97.8903 63.0905 93.4803 69.7005 88.1503C76.3105 82.8203 81.7005 78.5903 81.8205 78.7003C81.9405 78.8103 76.6305 83.1903 70.0005 88.5203C63.3705 93.8503 58.0005 98.0703 57.9005 98.0003Z" fill="#E0E0E0"/>
<path d="M100.76 81.8502C100.89 81.7802 104.1 87.8502 107.92 95.2902C111.74 102.73 114.73 108.91 114.6 108.97C114.47 109.03 111.27 102.97 107.45 95.5302C103.63 88.0902 100.63 81.9102 100.76 81.8502Z" fill="#E0E0E0"/>
<path d="M674.001 238L618.401 218.54C617.486 218.221 616.644 217.725 615.922 217.081C615.199 216.436 614.611 215.656 614.19 214.784C613.769 213.912 613.525 212.965 613.47 211.999C613.415 211.032 613.551 210.064 613.871 209.15L640.801 132.21C641.119 131.296 641.615 130.454 642.26 129.731C642.904 129.009 643.685 128.42 644.557 128C645.429 127.579 646.375 127.334 647.342 127.279C648.309 127.225 649.277 127.361 650.191 127.68L685.441 140L702.891 177.68L683.381 233.45C683.064 234.365 682.57 235.208 681.927 235.932C681.284 236.656 680.504 237.246 679.633 237.668C678.762 238.091 677.816 238.338 676.85 238.395C675.883 238.452 674.915 238.318 674.001 238Z" fill="#EBEBEB"/>
<path d="M685.44 140L677.87 161.66C677.572 162.509 677.445 163.408 677.495 164.306C677.545 165.205 677.772 166.084 678.162 166.895C678.552 167.706 679.098 168.431 679.768 169.031C680.439 169.631 681.221 170.093 682.07 170.39L702.89 177.68L685.44 140Z" fill="#F5F5F5"/>
<path d="M677.49 163.68C677.49 163.68 675.37 168.83 680.75 172.68C680.953 172.822 681.163 172.952 681.38 173.07C683.93 174.51 700.71 183.96 700.86 183.55C701.01 183.14 702.86 177.73 702.86 177.73L682.04 170.44C682.04 170.44 676.93 168.41 677.49 163.68Z" fill="#E0E0E0"/>
<path d="M673.51 159.16C673.42 159.44 667.58 157.65 660.51 155.16C653.44 152.67 647.73 150.44 647.83 150.16C647.93 149.88 653.76 151.67 660.83 154.16C667.9 156.65 673.61 158.88 673.51 159.16Z" fill="#FAFAFA"/>
<path d="M685.841 177.22C685.741 177.49 676.191 174.4 664.501 170.32C652.811 166.24 643.411 162.68 643.501 162.41C643.591 162.14 653.151 165.22 664.841 169.31C676.531 173.4 685.941 176.94 685.841 177.22Z" fill="#FAFAFA"/>
<path d="M686.08 188.78C685.98 189.05 675.57 185.66 662.83 181.21C650.09 176.76 639.83 172.91 639.93 172.63C640.03 172.35 650.44 175.74 663.18 180.2C675.92 184.66 686.17 188.5 686.08 188.78Z" fill="#FAFAFA"/>
<path d="M682.7 198.42C682.6 198.7 672.19 195.31 659.45 190.85C646.71 186.39 636.45 182.55 636.56 182.28C636.67 182.01 647.06 185.39 659.81 189.85C672.56 194.31 682.8 198.14 682.7 198.42Z" fill="#FAFAFA"/>
<path d="M679.32 208.07C679.23 208.35 668.82 204.96 656.08 200.5C643.34 196.04 633.08 192.2 633.18 191.92C633.28 191.64 643.69 195.03 656.43 199.49C669.17 203.95 679.42 207.79 679.32 208.07Z" fill="#FAFAFA"/>
<path d="M676 217.71C675.9 217.99 665.49 214.6 652.75 210.15C640.01 205.7 629.75 201.85 629.86 201.57C629.97 201.29 640.36 204.68 653.11 209.14C665.86 213.6 676.05 217.44 676 217.71Z" fill="#FAFAFA"/>
<path d="M656.49 389C658.054 388.058 659.735 387.325 661.49 386.82L662.49 381.82L670.88 381.67L672.09 386.6C673.868 387.036 675.58 387.709 677.18 388.6L681.43 385.82L687.43 391.65L684.81 395.99C685.752 397.554 686.485 399.235 686.99 400.99L691.99 401.99L692.14 410.38L687.21 411.59C686.774 413.369 686.101 415.08 685.21 416.68L687.99 420.92L682.16 426.92L677.82 424.29C676.258 425.24 674.577 425.976 672.82 426.48L671.82 431.48L663.43 431.63L662.22 426.7C660.441 426.264 658.73 425.591 657.13 424.7L652.88 427.48L646.88 421.65L649.51 417.31C648.562 415.748 647.826 414.066 647.32 412.31L642.32 411.31L642.17 402.92L647.1 401.71C647.536 399.932 648.209 398.22 649.1 396.62L646.32 392.37L652.15 386.37L656.49 388.99V389ZM661 400.23C659.765 401.512 658.937 403.13 658.622 404.882C658.307 406.634 658.518 408.44 659.229 410.071C659.94 411.703 661.119 413.087 662.616 414.049C664.114 415.011 665.863 415.507 667.642 415.475C669.422 415.442 671.152 414.883 672.614 413.868C674.076 412.853 675.204 411.427 675.855 409.771C676.507 408.115 676.653 406.302 676.274 404.563C675.896 402.824 675.011 401.236 673.73 400C672.879 399.179 671.875 398.534 670.775 398.101C669.674 397.668 668.499 397.456 667.317 397.477C666.135 397.499 664.969 397.753 663.885 398.225C662.801 398.698 661.82 399.379 661 400.23Z" fill="#F5F5F5"/>
<path d="M519.75 60.9999C521.481 59.9546 523.344 59.1442 525.29 58.5899L526.44 53.1099L535.71 52.9399L537 58.3999C538.966 58.8825 540.86 59.6258 542.63 60.6099L547.31 57.5399L554 63.9999L551.1 68.7899C552.147 70.5242 552.957 72.3908 553.51 74.3399L559 75.4599L559.16 84.7299L553.71 86.0599C553.233 88.0286 552.49 89.9229 551.5 91.6899L554.57 96.3699L548.13 103.05L543.34 100.14C541.608 101.185 539.745 101.996 537.8 102.55L536.67 108L527.4 108.16L526.07 102.72C524.103 102.234 522.209 101.487 520.44 100.5L515.76 103.57L509.09 97.1299L511.99 92.3399C510.944 90.6082 510.134 88.7453 509.58 86.7999L504.1 85.6999L503.93 76.4299L509.38 75.0899C509.856 73.1244 510.6 71.2335 511.59 69.4699L508.52 64.7799L515 58.1099L519.79 61.0099L519.75 60.9999ZM524.69 73.3499C523.322 74.765 522.405 76.5539 522.054 78.4902C521.703 80.4266 521.934 82.4235 522.718 84.2285C523.502 86.0334 524.804 87.5654 526.459 88.6306C528.113 89.6958 530.047 90.2464 532.014 90.2129C533.982 90.1793 535.895 89.563 537.513 88.442C539.13 87.321 540.379 85.7455 541.101 83.9149C541.823 82.0842 541.986 80.0806 541.569 78.1573C541.152 76.2341 540.175 74.4776 538.76 73.1099C536.855 71.2894 534.308 70.2944 531.673 70.3413C529.039 70.3881 526.529 71.4729 524.69 73.3599V73.3499Z" fill="#E0E0E0"/>
<path d="M681.12 475.24C681.12 475.38 544.05 475.5 375.01 475.5C205.97 475.5 68.8799 475.38 68.8799 475.24C68.8799 475.1 205.92 475 375 475C544.08 475 681.12 475.09 681.12 475.24Z" fill="#263238"/>
<path d="M590.87 90.9302H155.79C152.188 90.9302 148.734 92.3609 146.187 94.9077C143.641 97.4544 142.21 100.909 142.21 104.51V411.82C142.21 415.422 143.641 418.876 146.187 421.423C148.734 423.969 152.188 425.4 155.79 425.4H322.79C322.79 425.4 333.41 458.24 300.49 475.24H456.6C456.6 475.24 419.43 462.49 429 425.4H590.87C594.472 425.4 597.926 423.969 600.472 421.423C603.019 418.876 604.45 415.422 604.45 411.82V104.51C604.45 100.909 603.019 97.4544 600.472 94.9077C597.926 92.3609 594.472 90.9302 590.87 90.9302Z" fill="#455A64"/>
<path d="M379.14 393.08C385.06 401.54 375.79 410.8 367.33 404.88C367.049 404.681 366.806 404.434 366.61 404.15C360.7 395.7 369.96 386.45 378.41 392.35C378.692 392.552 378.939 392.798 379.14 393.08Z" fill="#263238"/>
<path d="M159.4 96.5601H587.26C588.534 96.5601 589.795 96.811 590.972 97.2984C592.149 97.7859 593.218 98.5004 594.119 99.4011C595.02 100.302 595.734 101.371 596.222 102.548C596.709 103.725 596.96 104.986 596.96 106.26V369.18H149.7V106.26C149.7 103.687 150.722 101.22 152.541 99.4011C154.36 97.582 156.828 96.5601 159.4 96.5601Z" fill="white"/>
<path d="M158.86 96.5601H589.44C591.435 96.5601 593.347 97.3524 594.758 98.7626C596.168 100.173 596.96 102.086 596.96 104.08V119.22H149.7V105.72C149.699 104.517 149.935 103.325 150.395 102.213C150.855 101.101 151.529 100.091 152.38 99.24C153.231 98.3892 154.241 97.7145 155.353 97.2547C156.465 96.7948 157.657 96.5587 158.86 96.5601Z" fill="#EBEBEB"/>
<path d="M513.08 425.44C513.08 425.59 451.17 425.7 374.82 425.7C298.47 425.7 236.54 425.59 236.54 425.44C236.54 425.29 298.44 425.18 374.82 425.18C451.2 425.18 513.08 425.3 513.08 425.44Z" fill="#263238"/>
<path d="M521.12 49.3599H248.39V369.53H521.12V49.3599Z" fill="white"/>
<path d="M521.04 49.4102H483.91V84.3502H521.04V49.4102Z" fill="#F5F5F5"/>
<path d="M500.81 60.7998H497.87V63.7498H500.81V60.7998Z" fill="white"/>
<path d="M504.9 60.7998H501.96V63.7498H504.9V60.7998Z" fill="white"/>
<path d="M508.98 60.7998H506.04V63.7498H508.98V60.7998Z" fill="white"/>
<path d="M500.81 65.2002H497.87V68.1502H500.81V65.2002Z" fill="white"/>
<path d="M504.9 65.2002H501.96V68.1502H504.9V65.2002Z" fill="white"/>
<path d="M508.98 65.2002H506.04V68.1502H508.98V65.2002Z" fill="white"/>
<path d="M500.81 69.5898H497.87V72.5398H500.81V69.5898Z" fill="white"/>
<path d="M504.9 69.5898H501.96V72.5398H504.9V69.5898Z" fill="white"/>
<path d="M508.98 69.5898H506.04V72.5398H508.98V69.5898Z" fill="white"/>
<path d="M521.04 33.23H248.31V49.41H521.04V33.23Z" fill="#E0E0E0"/>
<path d="M258.42 41.3199C258.42 41.8484 258.263 42.365 257.969 42.8043C257.676 43.2436 257.258 43.5858 256.77 43.7876C256.281 43.9894 255.744 44.0417 255.225 43.9379C254.707 43.834 254.232 43.5787 253.859 43.2043C253.486 42.8299 253.232 42.3532 253.13 41.8347C253.028 41.3161 253.083 40.7789 253.286 40.2912C253.49 39.8035 253.834 39.3872 254.274 39.095C254.714 38.8029 255.232 38.6479 255.76 38.6499C256.466 38.6526 257.143 38.935 257.642 39.4355C258.14 39.9359 258.42 40.6135 258.42 41.3199Z" fill="white"/>
<path d="M266 41.3199C266 41.848 265.844 42.3642 265.55 42.8033C265.257 43.2424 264.84 43.5846 264.352 43.7867C263.864 43.9887 263.327 44.0416 262.809 43.9386C262.291 43.8356 261.816 43.5813 261.442 43.2079C261.069 42.8345 260.814 42.3587 260.711 41.8408C260.608 41.3229 260.661 40.786 260.863 40.2981C261.065 39.8103 261.408 39.3933 261.847 39.0999C262.286 38.8065 262.802 38.6499 263.33 38.6499C264.038 38.6499 264.717 38.9312 265.218 39.4319C265.719 39.9326 266 40.6118 266 41.3199Z" fill="white"/>
<path d="M273.64 41.3201C273.64 41.8494 273.482 42.3668 273.188 42.8065C272.893 43.2462 272.474 43.5884 271.985 43.7896C271.495 43.9907 270.957 44.0418 270.438 43.9364C269.919 43.8309 269.443 43.5736 269.071 43.1972C268.699 42.8208 268.447 42.3422 268.347 41.8223C268.248 41.3024 268.305 40.7647 268.512 40.2773C268.718 39.79 269.065 39.3751 269.508 39.0854C269.951 38.7956 270.47 38.6441 271 38.6501C271.702 38.6605 272.372 38.9462 272.866 39.4455C273.359 39.9448 273.637 40.6179 273.64 41.3201Z" fill="white"/>
<path d="M280.41 79V88.29H278.27V84.47H274.06V88.28H271.92V79H274.06V82.66H278.27V79H280.41Z" fill="#263238"/>
<path d="M289.4 85.2902H284C284.108 85.7287 284.368 86.1145 284.735 86.3784C285.101 86.6423 285.55 86.767 286 86.7302C286.328 86.7419 286.655 86.6867 286.961 86.5681C287.267 86.4495 287.546 86.2699 287.78 86.0402L288.88 87.2302C288.513 87.6206 288.065 87.9266 287.568 88.1269C287.07 88.3272 286.536 88.417 286 88.3902C283.53 88.3902 281.93 86.8302 281.93 84.7102C281.923 84.2146 282.017 83.7228 282.207 83.2651C282.397 82.8073 282.678 82.3933 283.034 82.0485C283.39 81.7038 283.813 81.4355 284.277 81.2604C284.74 81.0853 285.235 81.0069 285.73 81.0302C286.224 81.0058 286.717 81.0851 287.178 81.263C287.639 81.4408 288.058 81.7132 288.408 82.0627C288.757 82.4122 289.029 82.831 289.207 83.2921C289.385 83.7533 289.464 84.2465 289.44 84.7402C289.44 84.8902 289.41 85.1202 289.4 85.2902ZM284 84.0902H287.51C287.44 83.6755 287.225 83.2992 286.904 83.0278C286.583 82.7564 286.176 82.6075 285.755 82.6075C285.335 82.6075 284.928 82.7564 284.606 83.0278C284.285 83.2992 284.07 83.6755 284 84.0902Z" fill="#263238"/>
<path d="M290.81 78.4302H292.88V88.2802H290.81V78.4302Z" fill="#263238"/>
<path d="M294.8 78.4302H296.86V88.2802H294.8V78.4302Z" fill="#263238"/>
<path d="M298.25 84.7098C298.201 83.9256 298.39 83.1451 298.791 82.4694C299.192 81.7938 299.787 81.2542 300.498 80.9206C301.209 80.5871 302.004 80.475 302.78 80.5988C303.556 80.7227 304.277 81.0768 304.849 81.6153C305.421 82.1537 305.818 82.8517 305.989 83.6186C306.159 84.3854 306.095 85.1859 305.806 85.9161C305.516 86.6463 305.013 87.2726 304.363 87.7137C303.713 88.1548 302.945 88.3903 302.16 88.3898C301.657 88.4227 301.153 88.3519 300.679 88.1816C300.205 88.0114 299.771 87.7454 299.404 87.4002C299.037 87.055 298.746 86.638 298.547 86.1751C298.348 85.7123 298.247 85.2135 298.25 84.7098ZM303.98 84.7098C303.947 84.3566 303.812 84.0205 303.591 83.7426C303.371 83.4646 303.074 83.2567 302.738 83.1442C302.401 83.0317 302.039 83.0195 301.696 83.1089C301.353 83.1984 301.043 83.3857 300.804 83.6481C300.565 83.9105 300.408 84.2367 300.351 84.5869C300.294 84.9371 300.34 85.2963 300.484 85.6207C300.628 85.9451 300.863 86.2207 301.16 86.4141C301.458 86.6075 301.805 86.7102 302.16 86.7098C302.417 86.7171 302.673 86.6691 302.911 86.5689C303.148 86.4688 303.361 86.3188 303.535 86.1292C303.71 85.9396 303.842 85.7148 303.922 85.4699C304.002 85.225 304.028 84.9658 304 84.7098H303.98Z" fill="#263238"/>
<path d="M307.14 87.1802C307.14 86.8434 307.273 86.5204 307.512 86.2822C307.75 86.044 308.073 85.9102 308.41 85.9102C308.746 85.9102 309.069 86.044 309.308 86.2822C309.546 86.5204 309.68 86.8434 309.68 87.1802C309.68 87.5171 309.546 87.8401 309.308 88.0783C309.069 88.3164 308.746 88.4502 308.41 88.4502C308.073 88.4502 307.75 88.3164 307.512 88.0783C307.273 87.8401 307.14 87.5171 307.14 87.1802ZM307.14 78.9902H309.6L309.19 85.0502H307.55L307.14 78.9902Z" fill="#263238"/>
<path d="M318.209 98.4299C318.209 98.5799 307.769 98.6899 294.889 98.6899C282.009 98.6899 271.569 98.5799 271.569 98.4299C271.569 98.2799 282.009 98.1699 294.889 98.1699C307.769 98.1699 318.209 98.2899 318.209 98.4299Z" fill="#263238"/>
<path d="M359.749 106.31C359.749 106.45 340.009 106.57 315.659 106.57C291.309 106.57 271.569 106.45 271.569 106.31C271.569 106.17 291.309 106.05 315.659 106.05C340.009 106.05 359.749 106.17 359.749 106.31Z" fill="#263238"/>
<path d="M374.48 115.13C374.48 115.27 351.54 115.39 323.25 115.39C294.96 115.39 272.02 115.27 272.02 115.13C272.02 114.99 294.95 114.87 323.25 114.87C351.55 114.87 374.48 115 374.48 115.13Z" fill="#E0E0E0"/>
<path d="M374.48 121C374.48 121.14 351.54 121.26 323.25 121.26C294.96 121.26 272 121.17 272 121C272 120.83 294.93 120.74 323.23 120.74C351.53 120.74 374.48 120.89 374.48 121Z" fill="#E0E0E0"/>
<path d="M328.909 143.93C327.977 143.929 327.054 143.744 326.193 143.386C325.332 143.028 324.55 142.504 323.892 141.843C323.233 141.183 322.712 140.4 322.356 139.538C322 138.676 321.818 137.752 321.819 136.82C321.818 135.888 322 134.964 322.356 134.102C322.712 133.24 323.233 132.457 323.892 131.797C324.55 131.136 325.332 130.612 326.193 130.254C327.054 129.896 327.977 129.711 328.909 129.71C329.842 129.711 330.765 129.896 331.626 130.254C332.487 130.612 333.268 131.136 333.927 131.797C334.585 132.457 335.107 133.24 335.463 134.102C335.818 134.964 336.001 135.888 335.999 136.82C335.999 138.702 335.253 140.508 333.924 141.84C332.595 143.173 330.792 143.925 328.909 143.93Z" fill="#F7941D"/>
<path d="M327.159 135.23H325.689V139.98H327.159V135.23Z" fill="white"/>
<path d="M326.42 134.61C326.595 134.612 326.766 134.562 326.913 134.466C327.059 134.37 327.173 134.233 327.241 134.071C327.309 133.91 327.327 133.732 327.293 133.561C327.26 133.389 327.176 133.232 327.052 133.108C326.928 132.984 326.771 132.9 326.599 132.867C326.427 132.833 326.25 132.851 326.088 132.919C325.927 132.987 325.79 133.101 325.694 133.247C325.598 133.394 325.548 133.565 325.55 133.74C325.55 133.971 325.642 134.192 325.805 134.355C325.968 134.518 326.189 134.61 326.42 134.61Z" fill="white"/>
<path d="M329.51 137.49C329.51 136.82 329.81 136.43 330.4 136.43C330.99 136.43 331.2 136.81 331.2 137.49V140H332.66V137C332.697 136.617 332.605 136.233 332.398 135.909C332.191 135.585 331.882 135.339 331.519 135.212C331.157 135.084 330.762 135.081 330.397 135.204C330.033 135.327 329.721 135.569 329.51 135.89V135.25H328.1V140H329.51V137.49Z" fill="white"/>
<path d="M295.23 144C294.29 144 293.36 143.815 292.492 143.455C291.623 143.095 290.835 142.567 290.171 141.902C289.507 141.237 288.98 140.448 288.621 139.579C288.263 138.711 288.079 137.78 288.08 136.84C288.079 135.9 288.263 134.968 288.621 134.099C288.98 133.23 289.506 132.44 290.17 131.774C290.834 131.108 291.623 130.58 292.491 130.219C293.359 129.858 294.29 129.671 295.23 129.67C296.17 129.671 297.1 129.858 297.968 130.219C298.835 130.58 299.623 131.109 300.287 131.775C300.95 132.441 301.475 133.231 301.833 134.1C302.19 134.969 302.373 135.9 302.37 136.84C302.373 137.779 302.19 138.71 301.832 139.578C301.475 140.447 300.949 141.236 300.286 141.902C299.623 142.567 298.835 143.094 297.967 143.455C297.1 143.815 296.169 144 295.23 144Z" fill="#F7941D"/>
<path d="M296.84 136.63H294V137.46H295.95C295.883 137.913 295.655 138.327 295.308 138.626C294.961 138.926 294.518 139.09 294.06 139.09C293.691 139.09 293.327 138.999 293.001 138.826C292.675 138.654 292.395 138.404 292.187 138.099C291.979 137.794 291.849 137.443 291.807 137.076C291.765 136.709 291.814 136.337 291.948 135.994C292.083 135.65 292.299 135.344 292.578 135.102C292.858 134.861 293.192 134.691 293.552 134.608C293.911 134.525 294.286 134.531 294.643 134.625C295 134.72 295.329 134.9 295.6 135.15L296.24 134.6C295.876 134.243 295.43 133.981 294.94 133.837C294.451 133.692 293.934 133.671 293.434 133.774C292.934 133.877 292.468 134.101 292.075 134.427C291.683 134.753 291.377 135.17 291.184 135.643C290.991 136.115 290.916 136.627 290.968 137.135C291.02 137.642 291.195 138.129 291.48 138.553C291.764 138.976 292.148 139.323 292.598 139.564C293.048 139.804 293.55 139.93 294.06 139.93C294.447 139.932 294.83 139.855 295.186 139.702C295.541 139.55 295.862 139.326 296.127 139.045C296.393 138.764 296.597 138.431 296.729 138.067C296.86 137.703 296.915 137.316 296.89 136.93L296.84 136.63Z" fill="white"/>
<path d="M300.99 136.67H299.8V135.47H299.04V136.67H297.84V137.43H299.04V138.62H299.8V137.43H300.99V136.67Z" fill="white"/>
<path d="M312.31 143.88C310.457 143.867 308.684 143.125 307.374 141.815C306.064 140.505 305.323 138.732 305.31 136.88C305.307 135.017 306.042 133.229 307.353 131.906C308.665 130.583 310.447 129.833 312.31 129.82C313.234 129.82 314.149 130.003 315.002 130.358C315.856 130.714 316.63 131.235 317.281 131.891C317.931 132.548 318.446 133.326 318.794 134.183C319.142 135.039 319.318 135.956 319.31 136.88C319.31 138.736 318.572 140.517 317.259 141.83C315.947 143.142 314.166 143.88 312.31 143.88Z" fill="#F7941D"/>
<path d="M312.309 133.65C313.309 133.65 313.469 133.65 313.869 133.65C314.115 133.65 314.359 133.694 314.589 133.78C314.754 133.846 314.904 133.945 315.029 134.07C315.155 134.195 315.254 134.345 315.319 134.51C315.404 134.741 315.448 134.984 315.449 135.23C315.449 135.64 315.449 135.76 315.449 136.8C315.449 137.84 315.449 137.95 315.449 138.36C315.449 138.606 315.405 138.85 315.319 139.08C315.254 139.245 315.155 139.394 315.029 139.52C314.904 139.645 314.754 139.744 314.589 139.81C314.36 139.901 314.116 139.948 313.869 139.95C313.469 139.95 313.339 139.95 312.309 139.95C311.279 139.95 311.159 139.95 310.749 139.95C310.506 139.948 310.265 139.901 310.039 139.81C309.872 139.746 309.72 139.648 309.593 139.523C309.465 139.397 309.365 139.246 309.299 139.08C309.219 138.848 309.175 138.605 309.169 138.36C309.169 137.95 309.169 137.83 309.169 136.8C309.169 135.77 309.169 135.64 309.169 135.23C309.176 134.985 309.22 134.742 309.299 134.51C309.365 134.344 309.465 134.193 309.593 134.067C309.72 133.941 309.872 133.844 310.039 133.78C310.266 133.694 310.507 133.65 310.749 133.65C311.159 133.65 311.279 133.65 312.309 133.65ZM312.309 132.96C311.259 132.96 311.129 132.96 310.719 132.96C310.398 132.966 310.08 133.026 309.779 133.14C309.523 133.24 309.291 133.393 309.099 133.59C308.903 133.78 308.753 134.013 308.659 134.27C308.546 134.571 308.485 134.889 308.479 135.21C308.479 135.62 308.479 135.76 308.479 136.81C308.479 137.86 308.479 137.99 308.479 138.4C308.484 138.721 308.545 139.04 308.659 139.34C308.752 139.6 308.903 139.836 309.099 140.03C309.294 140.221 309.525 140.371 309.779 140.47C310.08 140.583 310.398 140.644 310.719 140.65C311.129 140.65 311.259 140.65 312.309 140.65C313.359 140.65 313.489 140.65 313.899 140.65C314.221 140.644 314.539 140.583 314.839 140.47C315.095 140.373 315.326 140.223 315.519 140.03C315.719 139.836 315.873 139.601 315.969 139.34C316.079 139.038 316.14 138.721 316.149 138.4C316.149 137.99 316.149 137.86 316.149 136.81C316.149 135.76 316.149 135.62 316.149 135.21C316.139 134.889 316.078 134.572 315.969 134.27C315.869 134.014 315.717 133.782 315.522 133.587C315.328 133.393 315.095 133.241 314.839 133.14C314.539 133.026 314.221 132.966 313.899 132.96C313.489 132.96 313.359 132.96 312.309 132.96Z" fill="white"/>
<path d="M312.31 134.84C311.914 134.84 311.527 134.957 311.198 135.177C310.87 135.397 310.613 135.709 310.462 136.074C310.31 136.44 310.271 136.842 310.348 137.23C310.425 137.618 310.616 137.974 310.895 138.254C311.175 138.534 311.531 138.724 311.919 138.801C312.307 138.879 312.71 138.839 313.075 138.688C313.44 138.536 313.753 138.28 313.973 137.951C314.192 137.622 314.31 137.235 314.31 136.84C314.31 136.309 314.099 135.801 313.724 135.426C313.349 135.051 312.84 134.84 312.31 134.84ZM312.31 138.12C312.054 138.12 311.805 138.044 311.593 137.902C311.381 137.761 311.215 137.559 311.118 137.324C311.02 137.088 310.995 136.828 311.044 136.578C311.094 136.328 311.217 136.098 311.397 135.918C311.578 135.737 311.808 135.614 312.058 135.565C312.308 135.515 312.568 135.54 312.803 135.638C313.039 135.736 313.24 135.901 313.382 136.113C313.524 136.325 313.6 136.575 313.6 136.83C313.601 137 313.568 137.168 313.504 137.325C313.44 137.482 313.345 137.625 313.225 137.745C313.105 137.865 312.962 137.96 312.805 138.024C312.648 138.089 312.479 138.121 312.31 138.12Z" fill="white"/>
<path d="M314.839 134.76C314.849 134.827 314.844 134.895 314.826 134.96C314.807 135.025 314.774 135.085 314.73 135.136C314.686 135.187 314.631 135.228 314.57 135.256C314.508 135.284 314.442 135.298 314.374 135.298C314.307 135.298 314.24 135.284 314.179 135.256C314.117 135.228 314.063 135.187 314.019 135.136C313.974 135.085 313.942 135.025 313.923 134.96C313.904 134.895 313.899 134.827 313.909 134.76C313.926 134.648 313.982 134.546 314.067 134.473C314.152 134.399 314.261 134.358 314.374 134.358C314.487 134.358 314.596 134.399 314.682 134.473C314.767 134.546 314.823 134.648 314.839 134.76Z" fill="white"/>
<path d="M278.38 144C277.448 143.999 276.525 143.814 275.665 143.456C274.805 143.097 274.023 142.573 273.366 141.913C272.708 141.252 272.187 140.469 271.833 139.607C271.478 138.745 271.297 137.822 271.3 136.89C271.299 135.959 271.481 135.037 271.836 134.176C272.191 133.315 272.712 132.533 273.369 131.874C274.027 131.214 274.808 130.691 275.667 130.334C276.527 129.976 277.449 129.791 278.38 129.79C280.261 129.793 282.064 130.542 283.394 131.873C284.723 133.204 285.47 135.009 285.47 136.89C285.471 137.822 285.289 138.746 284.933 139.608C284.578 140.47 284.056 141.253 283.397 141.913C282.739 142.574 281.957 143.098 281.096 143.456C280.235 143.814 279.312 143.999 278.38 144Z" fill="#F7941D"/>
<path d="M277.3 141.17H279V136.84H280.2L280.33 135.39H279V134.56C279 134.22 279.06 134.08 279.39 134.08H280.33V132.58H279.13C277.85 132.58 277.27 133.15 277.27 134.23V135.39H276.37V136.85H277.27L277.3 141.17Z" fill="white"/>
<path d="M347 153.59C347 153.73 329.08 153.85 307 153.85C284.92 153.85 267 153.73 267 153.59C267 153.45 284.93 153.33 307 153.33C329.07 153.33 347 153.44 347 153.59Z" fill="#263238"/>
<path d="M508.93 179.78H264.5V369.06H508.93V179.78Z" fill="#F5F5F5"/>
<path d="M341.689 202.28C341.689 202.42 334.249 202.54 325.079 202.54C315.909 202.54 308.479 202.42 308.479 202.28C308.479 202.14 315.909 202.02 325.079 202.02C334.249 202.02 341.689 202.13 341.689 202.28Z" fill="#F7941D"/>
<path d="M460.75 202.28C460.75 202.42 453.32 202.54 444.15 202.54C434.98 202.54 427.55 202.42 427.55 202.28C427.55 202.14 434.98 202.02 444.15 202.02C453.32 202.02 460.75 202.13 460.75 202.28Z" fill="#F7941D"/>
<path d="M460.75 240.55C460.75 240.7 453.32 240.81 444.15 240.81C434.98 240.81 427.55 240.7 427.55 240.55C427.55 240.4 434.98 240.29 444.15 240.29C453.32 240.29 460.75 240.41 460.75 240.55Z" fill="#F7941D"/>
<path d="M353 214.55C353 214.69 343.34 214.81 331.43 214.81C319.52 214.81 309.87 214.69 309.87 214.55C309.87 214.41 319.52 214.29 331.43 214.29C343.34 214.29 353 214.41 353 214.55Z" fill="#455A64"/>
<path d="M351.67 237.18C351.67 237.33 342.01 237.44 330.1 237.44C318.19 237.44 308.54 237.33 308.54 237.18C308.54 237.03 318.19 236.92 330.1 236.92C342.01 236.92 351.67 237 351.67 237.18Z" fill="#263238"/>
<path d="M306.649 214.55C306.649 214.748 306.591 214.941 306.481 215.105C306.371 215.27 306.215 215.398 306.032 215.474C305.849 215.549 305.648 215.569 305.454 215.531C305.26 215.492 305.082 215.397 304.942 215.257C304.802 215.117 304.707 214.939 304.669 214.745C304.63 214.551 304.65 214.35 304.726 214.167C304.801 213.984 304.929 213.828 305.094 213.718C305.258 213.608 305.452 213.55 305.649 213.55C305.915 213.55 306.169 213.655 306.357 213.843C306.544 214.03 306.649 214.285 306.649 214.55Z" fill="#263238"/>
<path d="M306.649 237.18C306.649 237.378 306.591 237.571 306.481 237.736C306.371 237.9 306.215 238.028 306.032 238.104C305.849 238.18 305.648 238.2 305.454 238.161C305.26 238.122 305.082 238.027 304.942 237.887C304.802 237.747 304.707 237.569 304.669 237.375C304.63 237.181 304.65 236.98 304.726 236.798C304.801 236.615 304.929 236.459 305.094 236.349C305.258 236.239 305.452 236.18 305.649 236.18C305.915 236.18 306.169 236.286 306.357 236.473C306.544 236.661 306.649 236.915 306.649 237.18Z" fill="#263238"/>
<path d="M306.6 256.32C306.6 256.518 306.541 256.711 306.431 256.875C306.321 257.04 306.165 257.168 305.982 257.244C305.8 257.319 305.599 257.339 305.405 257.301C305.211 257.262 305.032 257.167 304.893 257.027C304.753 256.887 304.657 256.709 304.619 256.515C304.58 256.321 304.6 256.12 304.676 255.937C304.751 255.754 304.88 255.598 305.044 255.488C305.209 255.378 305.402 255.32 305.6 255.32C305.865 255.32 306.119 255.425 306.307 255.613C306.494 255.8 306.6 256.055 306.6 256.32Z" fill="#263238"/>
<path d="M305.6 234.46C305.342 231.548 305.255 228.623 305.34 225.7C305.256 222.781 305.342 219.859 305.6 216.95C305.863 219.859 305.95 222.781 305.86 225.7C305.95 228.623 305.863 231.548 305.6 234.46Z" fill="#263238"/>
<path d="M305.6 252.67C305.343 250.661 305.256 248.634 305.34 246.61C305.256 244.586 305.343 242.559 305.6 240.55C305.862 242.558 305.949 244.586 305.86 246.61C305.95 248.634 305.863 250.661 305.6 252.67Z" fill="#263238"/>
<path d="M327.7 218.22C324.855 218.477 321.996 218.564 319.14 218.48C316.284 218.564 313.426 218.477 310.58 218.22C313.425 217.957 316.284 217.87 319.14 217.96C321.996 217.869 324.855 217.956 327.7 218.22Z" fill="#455A64"/>
<path d="M352.65 225.21C352.65 225.35 343.31 225.47 331.8 225.47C320.29 225.47 310.95 225.35 310.95 225.21C310.95 225.07 320.28 224.95 331.8 224.95C343.32 224.95 352.65 225.06 352.65 225.21Z" fill="#E0E0E0"/>
<path d="M341 231C341 231.14 334.28 231.26 326 231.26C317.72 231.26 311 231.14 311 231C311 230.86 317.72 230.74 326 230.74C334.28 230.74 341 230.88 341 231Z" fill="#E0E0E0"/>
<path d="M352.28 228C352.28 228.14 342.95 228.26 331.43 228.26C319.91 228.26 310.58 228.14 310.58 228C310.58 227.86 319.92 227.74 331.43 227.74C342.94 227.74 352.28 227.88 352.28 228Z" fill="#E0E0E0"/>
<path d="M352.65 243.49C352.65 243.63 343.31 243.75 331.8 243.75C320.29 243.75 310.95 243.63 310.95 243.49C310.95 243.35 320.28 243.23 331.8 243.23C343.32 243.23 352.65 243.34 352.65 243.49Z" fill="#E0E0E0"/>
<path d="M341 249.31C341 249.45 334.28 249.57 326 249.57C317.72 249.57 311 249.45 311 249.31C311 249.17 317.72 249.05 326 249.05C334.28 249.05 341 249.16 341 249.31Z" fill="#E0E0E0"/>
<path d="M352.28 246.31C352.28 246.45 342.95 246.57 331.43 246.57C319.91 246.57 310.58 246.45 310.58 246.31C310.58 246.17 319.92 246.05 331.43 246.05C342.94 246.05 352.28 246.16 352.28 246.31Z" fill="#E0E0E0"/>
<path d="M351.67 256.51C351.67 256.66 342.01 256.77 330.1 256.77C318.19 256.77 308.54 256.66 308.54 256.51C308.54 256.36 318.19 256.25 330.1 256.25C342.01 256.25 351.67 256.37 351.67 256.51Z" fill="#263238"/>
<path d="M352.65 262.82C352.65 262.96 343.31 263.08 331.8 263.08C320.29 263.08 311 263 311 262.82C311 262.64 320.33 262.56 331.85 262.56C343.37 262.56 352.65 262.67 352.65 262.82Z" fill="#E0E0E0"/>
<path d="M341 268.64C341 268.78 334.28 268.9 326 268.9C317.72 268.9 311 268.78 311 268.64C311 268.5 317.72 268.38 326 268.38C334.28 268.38 341 268.49 341 268.64Z" fill="#E0E0E0"/>
<path d="M352.28 265.64C352.28 265.78 342.95 265.9 331.43 265.9C319.91 265.9 310.58 265.78 310.58 265.64C310.58 265.5 319.92 265.38 331.43 265.38C342.94 265.38 352.28 265.49 352.28 265.64Z" fill="#E0E0E0"/>
<path d="M341.689 281.64C341.689 281.78 334.249 281.9 325.079 281.9C315.909 281.9 308.479 281.78 308.479 281.64C308.479 281.5 315.909 281.38 325.079 281.38C334.249 281.38 341.689 281.49 341.689 281.64Z" fill="#F7941D"/>
<path d="M353 293.91C353 294.05 343.34 294.17 331.43 294.17C319.52 294.17 309.87 294.05 309.87 293.91C309.87 293.77 319.52 293.65 331.43 293.65C343.34 293.65 353 293.77 353 293.91Z" fill="#455A64"/>
<path d="M351.67 316.54C351.67 316.69 342.01 316.8 330.1 316.8C318.19 316.8 308.54 316.69 308.54 316.54C308.54 316.39 318.19 316.28 330.1 316.28C342.01 316.28 351.67 316.4 351.67 316.54Z" fill="#263238"/>
<path d="M305.66 294.9C306.207 294.9 306.65 294.457 306.65 293.91C306.65 293.363 306.207 292.92 305.66 292.92C305.113 292.92 304.67 293.363 304.67 293.91C304.67 294.457 305.113 294.9 305.66 294.9Z" fill="#263238"/>
<path d="M306.649 316.54C306.649 316.738 306.591 316.931 306.481 317.096C306.371 317.26 306.215 317.388 306.032 317.464C305.849 317.54 305.648 317.559 305.454 317.521C305.26 317.482 305.082 317.387 304.942 317.247C304.802 317.107 304.707 316.929 304.669 316.735C304.63 316.541 304.65 316.34 304.726 316.157C304.801 315.975 304.929 315.818 305.094 315.709C305.258 315.599 305.452 315.54 305.649 315.54C305.915 315.54 306.169 315.645 306.357 315.833C306.544 316.02 306.649 316.275 306.649 316.54Z" fill="#263238"/>
<path d="M306.6 335.68C306.6 335.945 306.494 336.2 306.307 336.387C306.119 336.575 305.865 336.68 305.6 336.68C305.334 336.68 305.08 336.575 304.892 336.387C304.705 336.2 304.6 335.945 304.6 335.68C304.6 335.415 304.705 335.16 304.892 334.973C305.08 334.785 305.334 334.68 305.6 334.68C305.865 334.68 306.119 334.785 306.307 334.973C306.494 335.16 306.6 335.415 306.6 335.68Z" fill="#263238"/>
<path d="M305.6 313.82C305.342 310.911 305.256 307.989 305.34 305.07C305.255 302.147 305.342 299.222 305.6 296.31C305.863 299.222 305.95 302.147 305.86 305.07C305.95 307.989 305.863 310.911 305.6 313.82Z" fill="#263238"/>
<path d="M305.6 332C305.253 327.967 305.253 323.912 305.6 319.88C305.947 323.912 305.947 327.967 305.6 332Z" fill="#263238"/>
<path d="M327.7 297.58C324.855 297.837 321.996 297.924 319.14 297.84C316.284 297.924 313.426 297.837 310.58 297.58C313.425 297.317 316.284 297.23 319.14 297.32C321.996 297.23 324.855 297.316 327.7 297.58Z" fill="#455A64"/>
<path d="M352.65 304.57C352.65 304.71 343.31 304.83 331.8 304.83C320.29 304.83 310.95 304.71 310.95 304.57C310.95 304.43 320.28 304.31 331.8 304.31C343.32 304.31 352.65 304.42 352.65 304.57Z" fill="#E0E0E0"/>
<path d="M341 310.39C341 310.53 334.28 310.65 326 310.65C317.72 310.65 311 310.53 311 310.39C311 310.25 317.72 310.13 326 310.13C334.28 310.13 341 310.25 341 310.39Z" fill="#E0E0E0"/>
<path d="M352.28 307.39C352.28 307.53 342.95 307.65 331.43 307.65C319.91 307.65 310.58 307.53 310.58 307.39C310.58 307.25 319.92 307.13 331.43 307.13C342.94 307.13 352.28 307.24 352.28 307.39Z" fill="#E0E0E0"/>
<path d="M352.65 322.85C352.65 322.99 343.31 323.11 331.8 323.11C320.29 323.11 311 323 311 322.85C311 322.7 320.33 322.59 331.85 322.59C343.37 322.59 352.65 322.7 352.65 322.85Z" fill="#E0E0E0"/>
<path d="M341 328.67C341 328.81 334.28 328.93 326 328.93C317.72 328.93 311 328.81 311 328.67C311 328.53 317.72 328.41 326 328.41C334.28 328.41 341 328.53 341 328.67Z" fill="#E0E0E0"/>
<path d="M352.28 325.67C352.28 325.81 342.95 325.93 331.43 325.93C319.91 325.93 310.58 325.81 310.58 325.67C310.58 325.53 319.92 325.41 331.43 325.41C342.94 325.41 352.28 325.52 352.28 325.67Z" fill="#E0E0E0"/>
<path d="M351.67 335.87C351.67 336.02 342.01 336.13 330.1 336.13C318.19 336.13 308.54 336.02 308.54 335.87C308.54 335.72 318.19 335.61 330.1 335.61C342.01 335.61 351.67 335.73 351.67 335.87Z" fill="#263238"/>
<path d="M352.65 342.18C352.65 342.32 343.31 342.44 331.8 342.44C320.29 342.44 310.95 342.32 310.95 342.18C310.95 342.04 320.28 341.92 331.8 341.92C343.32 341.92 352.65 342 352.65 342.18Z" fill="#E0E0E0"/>
<path d="M341 348C341 348.14 334.28 348.26 326 348.26C317.72 348.26 311 348.14 311 348C311 347.86 317.72 347.74 326 347.74C334.28 347.74 341 347.86 341 348Z" fill="#E0E0E0"/>
<path d="M352.28 345C352.28 345.14 342.95 345.26 331.43 345.26C319.91 345.26 310.58 345.14 310.58 345C310.58 344.86 319.92 344.74 331.43 344.74C342.94 344.74 352.28 344.85 352.28 345Z" fill="#E0E0E0"/>
<path d="M389.47 368.6C389.33 368.6 389.21 326.6 389.21 274.78C389.21 222.96 389.33 180.96 389.47 180.96C389.61 180.96 389.73 222.96 389.73 274.78C389.73 326.6 389.61 368.6 389.47 368.6Z" fill="#455A64"/>
<path d="M483.91 213.46C483.91 213.6 470.77 213.72 454.57 213.72C438.37 213.72 425.22 213.6 425.22 213.46C425.22 213.32 438.35 213.2 454.57 213.2C470.79 213.2 483.91 213.32 483.91 213.46Z" fill="#455A64"/>
<path d="M484.69 218.22C484.69 218.36 471.69 218.48 455.56 218.48C439.43 218.48 426.43 218.36 426.43 218.22C426.43 218.08 439.43 217.96 455.56 217.96C471.69 217.96 484.69 218.07 484.69 218.22Z" fill="#455A64"/>
<path d="M460.75 313.91C460.75 314.05 453.32 314.17 444.15 314.17C434.98 314.17 427.55 314.05 427.55 313.91C427.55 313.77 434.98 313.65 444.15 313.65C453.32 313.65 460.75 313.77 460.75 313.91Z" fill="#F7941D"/>
<path d="M483.91 325.09C483.91 325.24 470.77 325.35 454.57 325.35C438.37 325.35 425.22 325.24 425.22 325.09C425.22 324.94 438.35 324.83 454.57 324.83C470.79 324.83 483.91 325 483.91 325.09Z" fill="#455A64"/>
<path d="M484.69 329.85C484.69 329.99 471.38 330.11 454.96 330.11C438.54 330.11 425.22 329.99 425.22 329.85C425.22 329.71 438.53 329.59 454.96 329.59C471.39 329.59 484.69 329.71 484.69 329.85Z" fill="#455A64"/>
<path d="M479.16 256.41H428.68C428.385 256.411 428.092 256.354 427.819 256.242C427.547 256.13 427.298 255.966 427.089 255.757C426.88 255.549 426.714 255.302 426.601 255.029C426.488 254.757 426.43 254.465 426.43 254.17C426.43 253.573 426.667 253.001 427.089 252.579C427.511 252.157 428.083 251.92 428.68 251.92H479.16C479.756 251.92 480.329 252.157 480.751 252.579C481.173 253.001 481.41 253.573 481.41 254.17C481.41 254.465 481.351 254.757 481.238 255.029C481.125 255.302 480.959 255.549 480.75 255.757C480.541 255.966 480.293 256.13 480.02 256.242C479.747 256.354 479.455 256.411 479.16 256.41Z" fill="#E0E0E0"/>
<path d="M455.83 256.41H428.68C428.385 256.411 428.092 256.354 427.819 256.242C427.547 256.13 427.298 255.966 427.089 255.757C426.88 255.549 426.714 255.302 426.601 255.029C426.488 254.757 426.43 254.465 426.43 254.17C426.43 253.573 426.667 253.001 427.089 252.579C427.511 252.157 428.083 251.92 428.68 251.92H455.83C456.426 251.92 456.999 252.157 457.421 252.579C457.843 253.001 458.08 253.573 458.08 254.17C458.08 254.465 458.021 254.757 457.908 255.029C457.795 255.302 457.629 255.549 457.42 255.757C457.211 255.966 456.963 256.13 456.69 256.242C456.417 256.354 456.125 256.411 455.83 256.41Z" fill="#F7941D"/>
<path d="M479.16 266.41H428.68C428.385 266.411 428.092 266.354 427.819 266.242C427.547 266.13 427.298 265.966 427.089 265.757C426.88 265.549 426.714 265.302 426.601 265.029C426.488 264.757 426.43 264.465 426.43 264.17C426.43 263.573 426.667 263.001 427.089 262.579C427.511 262.157 428.083 261.92 428.68 261.92H479.16C479.756 261.92 480.329 262.157 480.751 262.579C481.173 263.001 481.41 263.573 481.41 264.17C481.41 264.465 481.351 264.757 481.238 265.029C481.125 265.302 480.959 265.549 480.75 265.757C480.541 265.966 480.293 266.13 480.02 266.242C479.747 266.354 479.455 266.411 479.16 266.41Z" fill="#E0E0E0"/>
<path d="M447 266.41H428.68C428.385 266.411 428.092 266.354 427.819 266.242C427.547 266.13 427.298 265.966 427.089 265.757C426.88 265.549 426.714 265.302 426.601 265.029C426.488 264.757 426.43 264.465 426.43 264.17C426.43 263.573 426.667 263.001 427.089 262.579C427.511 262.157 428.083 261.92 428.68 261.92H447C447.596 261.92 448.169 262.157 448.591 262.579C449.013 263.001 449.25 263.573 449.25 264.17C449.25 264.465 449.191 264.757 449.078 265.029C448.965 265.302 448.799 265.549 448.59 265.757C448.381 265.966 448.133 266.13 447.86 266.242C447.587 266.354 447.295 266.411 447 266.41Z" fill="#F7941D"/>
<path d="M479.16 276.41H428.68C428.385 276.411 428.092 276.354 427.819 276.242C427.547 276.13 427.298 275.966 427.089 275.757C426.88 275.549 426.714 275.302 426.601 275.029C426.488 274.757 426.43 274.465 426.43 274.17C426.43 273.573 426.667 273.001 427.089 272.579C427.511 272.157 428.083 271.92 428.68 271.92H479.16C479.756 271.92 480.329 272.157 480.751 272.579C481.173 273.001 481.41 273.573 481.41 274.17C481.41 274.465 481.351 274.757 481.238 275.029C481.125 275.302 480.959 275.549 480.75 275.757C480.541 275.966 480.293 276.13 480.02 276.242C479.747 276.354 479.455 276.411 479.16 276.41Z" fill="#E0E0E0"/>
<path d="M471.85 276.41H428.68C428.385 276.411 428.092 276.354 427.819 276.242C427.547 276.13 427.298 275.966 427.089 275.757C426.88 275.549 426.714 275.302 426.601 275.029C426.488 274.757 426.43 274.465 426.43 274.17C426.43 273.573 426.667 273.001 427.089 272.579C427.511 272.157 428.083 271.92 428.68 271.92H471.85C472.145 271.92 472.437 271.978 472.709 272.091C472.982 272.205 473.229 272.37 473.437 272.58C473.645 272.789 473.81 273.037 473.922 273.31C474.034 273.583 474.091 273.875 474.09 274.17C474.09 274.764 473.854 275.334 473.434 275.754C473.014 276.174 472.444 276.41 471.85 276.41Z" fill="#F7941D"/>
<path d="M479.16 286.42H428.68C428.083 286.42 427.511 286.183 427.089 285.761C426.667 285.339 426.43 284.767 426.43 284.17C426.43 283.573 426.667 283.001 427.089 282.579C427.511 282.157 428.083 281.92 428.68 281.92H479.16C479.756 281.92 480.329 282.157 480.751 282.579C481.173 283.001 481.41 283.573 481.41 284.17C481.41 284.767 481.173 285.339 480.751 285.761C480.329 286.183 479.756 286.42 479.16 286.42Z" fill="#E0E0E0"/>
<path d="M465.72 286.42H428.72C428.123 286.42 427.551 286.183 427.129 285.761C426.707 285.339 426.47 284.767 426.47 284.17C426.47 283.573 426.707 283.001 427.129 282.579C427.551 282.157 428.123 281.92 428.72 281.92H465.72C466.316 281.92 466.889 282.157 467.311 282.579C467.733 283.001 467.97 283.573 467.97 284.17C467.97 284.767 467.733 285.339 467.311 285.761C466.889 286.183 466.316 286.42 465.72 286.42Z" fill="#F7941D"/>
<path d="M421.52 255.12C418.36 255.48 415.17 255.48 412.01 255.12C415.17 254.773 418.359 254.773 421.52 255.12Z" fill="#455A64"/>
<path d="M421.52 264.17C418.359 264.517 415.17 264.517 412.01 264.17C415.17 263.823 418.359 263.823 421.52 264.17Z" fill="#455A64"/>
<path d="M421.52 273.21C418.359 273.557 415.17 273.557 412.01 273.21C415.17 272.864 418.359 272.864 421.52 273.21Z" fill="#455A64"/>
<path d="M421.52 282.25C418.359 282.597 415.17 282.597 412.01 282.25C415.17 281.903 418.359 281.903 421.52 282.25Z" fill="#455A64"/>
<path d="M284.569 196.94L292.979 193.25L300.619 196.94L292.809 200.94L284.569 196.94Z" fill="#F7941D"/>
<path d="M286.33 198.95L286.21 203.97H298.67V199.12L292.65 202.07L286.33 198.95Z" fill="#F7941D"/>
<path d="M418.639 196.54H406.189V204.45H418.639V196.54Z" fill="#F7941D"/>
<path d="M414.92 204.45H409.92V206.93H414.92V204.45Z" fill="#F7941D"/>
<path d="M417.689 206.84C413.991 207.187 410.268 207.187 406.569 206.84C410.268 206.493 413.991 206.493 417.689 206.84Z" fill="#F7941D"/>
<path d="M294.059 276.45H281.609V284.36H294.059V276.45Z" fill="#F7941D"/>
<path d="M290.33 284.36H285.33V286.84H290.33V284.36Z" fill="#F7941D"/>
<path d="M293.099 286.75C289.401 287.097 285.678 287.097 281.979 286.75C285.678 286.403 289.401 286.403 293.099 286.75Z" fill="#F7941D"/>
<path d="M417.999 243L416.869 241C417.576 239.858 417.83 238.492 417.581 237.173C417.332 235.853 416.598 234.674 415.524 233.867C414.45 233.061 413.113 232.685 411.776 232.815C410.439 232.944 409.199 233.569 408.299 234.566C407.4 235.563 406.906 236.861 406.914 238.204C406.923 239.547 407.434 240.839 408.346 241.824C409.258 242.81 410.507 243.419 411.845 243.531C413.184 243.643 414.516 243.25 415.579 242.43L417.999 243Z" fill="#F7941D"/>
<path d="M414.92 311C415.47 310.759 415.937 310.36 416.263 309.855C416.588 309.35 416.758 308.761 416.75 308.16C416.783 307.762 416.734 307.361 416.604 306.983C416.474 306.604 416.268 306.257 415.997 305.963C415.726 305.669 415.398 305.434 415.031 305.273C414.665 305.113 414.27 305.03 413.87 305.03C413.47 305.03 413.075 305.113 412.709 305.273C412.343 305.434 412.014 305.669 411.743 305.963C411.473 306.257 411.266 306.604 411.136 306.983C411.007 307.361 410.957 307.762 410.99 308.16C410.98 308.766 411.15 309.362 411.477 309.873C411.804 310.383 412.275 310.786 412.83 311.03C408.39 311.7 408.6 316.52 408.6 316.52H419.08C419.08 316.52 419.32 311.67 414.92 311Z" fill="#F7941D"/>
<path d="M521 33.23C521 35.23 521.1 169.57 521.24 369.58V369.82H521H248.3H248.01V369.55C248.01 245.1 248.01 129.38 248.01 33.2V33H248.23L521 33.23L248.27 33.45L248.49 33.23C248.49 129.41 248.49 245.13 248.49 369.58L248.23 369.32H520.93L520.7 369.55C521 169.57 521 35.26 521 33.23Z" fill="#263238"/>
<path d="M635.81 247.46C623.94 253.61 614.81 264.19 608.3 275.85C601.79 287.51 597.54 300.29 593.36 313L589.7 378.47C603.51 354.98 614.6 327.36 617.59 300.28L608.4 299.46C614.56 298.52 619.73 294.06 623.02 288.76C626.31 283.46 628.02 277.36 629.66 271.36L618.45 273C627.304 267.034 633.521 257.888 635.81 247.46Z" fill="#455A64"/>
<path d="M635.81 247.46C623.94 253.61 614.81 264.19 608.3 275.85C601.79 287.51 597.54 300.29 593.36 313L589.7 378.47C603.51 354.98 614.6 327.36 617.59 300.28L608.4 299.46C614.56 298.52 619.73 294.06 623.02 288.76C626.31 283.46 628.02 277.36 629.66 271.36L618.45 273C627.304 267.034 633.521 257.888 635.81 247.46Z" fill="#F7941D"/>
<g opacity="0.3">
<path d="M635.81 247.46C623.94 253.61 614.81 264.19 608.3 275.85C601.79 287.51 597.54 300.29 593.36 313L589.7 378.47C603.51 354.98 614.6 327.36 617.59 300.28L608.4 299.46C614.56 298.52 619.73 294.06 623.02 288.76C626.31 283.46 628.02 277.36 629.66 271.36L618.45 273C627.304 267.034 633.521 257.888 635.81 247.46Z" fill="black"/>
</g>
<path d="M587.66 393.81C587.66 393.81 557.66 357.93 558.03 323.68H570.14C570.14 323.68 557 315 558 310.19C559 305.38 559.42 287 559.42 287L570.49 289.77C570.49 289.77 562.18 285.62 561.14 279.05C560.1 272.48 563.57 242.05 563.57 242.05C563.57 242.05 577.06 256.24 581.21 270.76C585.36 285.28 596.21 302.24 593.06 346.52C589.91 390.8 587.66 393.81 587.66 393.81Z" fill="#F7941D"/>
<path d="M602.85 397.19C602.85 397.19 635.33 375.56 642.54 347.95L632.81 345.3C632.81 345.3 645.27 341.22 645.5 337.1C645.73 332.98 649.5 318.17 649.5 318.17L640 318C640 318 647.58 316.48 649.85 311.42C652.12 306.36 656 281.1 656 281.1C656 281.1 642 289.55 635.54 300.33C629.08 311.11 616.54 322.33 609.44 358.64C602.34 394.95 602.85 397.19 602.85 397.19Z" fill="#F7941D"/>
<path d="M571.75 273.32C571.799 273.439 571.836 273.563 571.86 273.69C571.92 273.97 572.01 274.33 572.12 274.8C572.34 275.8 572.66 277.23 573.12 279.06C573.58 280.89 574.01 283.17 574.54 285.81C575.07 288.45 575.69 291.45 576.3 294.81C577.58 301.46 578.93 309.42 580.3 318.26C581.67 327.1 583 336.87 584.2 347.14C585.4 357.41 586.29 367.22 587 376.14C587.71 385.06 588.15 393.14 588.42 399.89C588.59 403.28 588.67 406.34 588.76 409.03C588.85 411.72 588.9 414.03 588.92 415.93C588.94 417.83 588.92 419.26 588.97 420.29V421.42C588.979 421.55 588.979 421.68 588.97 421.81C588.959 421.68 588.959 421.55 588.97 421.42C588.97 421.14 588.97 420.77 588.97 420.29C588.97 419.29 588.89 417.8 588.82 415.93C588.75 414.06 588.7 411.73 588.58 409.04C588.46 406.35 588.36 403.29 588.17 399.91C587.85 393.15 587.31 385.1 586.63 376.18C585.95 367.26 584.97 357.45 583.8 347.18C582.63 336.91 581.26 327.18 579.94 318.32C578.62 309.46 577.26 301.51 576.02 294.86C575.44 291.52 574.84 288.52 574.34 285.86C573.84 283.2 573.34 280.94 573.01 279.09C572.68 277.24 572.36 275.82 572.16 274.81L571.95 273.69C571.876 273.571 571.809 273.447 571.75 273.32Z" fill="#263238"/>
<path d="M583.5 415.77C583.5 415.77 556.07 384.65 547.56 365.84L553.98 363.09C549.32 363.86 544.55 361.86 540.98 358.82C537.41 355.78 534.71 351.77 532.11 347.82L540.58 346.39C532.774 344.187 526.119 339.057 522 332.07C532 333.71 541 339.2 548.49 346.07C554.49 351.63 559.63 358.07 564.54 364.67C566.938 367.881 569.024 371.313 570.77 374.92C575.41 384.44 583.52 404.35 583.5 415.77Z" fill="#F7941D"/>
<path d="M643 299.22C642.972 299.329 642.928 299.433 642.87 299.53C642.77 299.76 642.63 300.06 642.45 300.44C642.05 301.25 641.45 302.44 640.78 303.89C639.31 306.89 637.22 311.22 634.7 316.61C632.18 322 629.26 328.47 626.13 335.69C623 342.91 619.72 350.92 616.44 359.39C613.16 367.86 610.23 376.01 607.66 383.45C605.09 390.89 602.92 397.64 601.17 403.33C599.42 409.02 598.02 413.64 597.1 416.84L596 420.52C595.88 420.91 595.78 421.23 595.71 421.52C595.681 421.63 595.64 421.737 595.59 421.84C595.597 421.727 595.621 421.616 595.66 421.51L595.9 420.51C596.13 419.63 596.47 418.39 596.9 416.8C597.76 413.58 599.09 408.95 600.8 403.25C602.51 397.55 604.67 390.78 607.2 383.32C609.73 375.86 612.67 367.71 615.94 359.22C619.21 350.73 622.55 342.75 625.68 335.52C628.81 328.29 631.78 321.85 634.35 316.47C636.92 311.09 639.06 306.78 640.59 303.82L642.35 300.41C642.54 300.04 642.7 299.75 642.82 299.53C642.866 299.419 642.927 299.315 643 299.22Z" fill="#263238"/>
<path d="M585.83 429.11C585.764 428.926 585.72 428.734 585.7 428.54C585.63 428.1 585.54 427.54 585.44 426.89C585.34 426.24 585.2 425.29 585.01 424.27C584.82 423.25 584.65 422.1 584.37 420.83C583.88 418.28 583.18 415.27 582.28 411.96C581.38 408.65 580.22 405.07 578.83 401.36C577.44 397.65 575.9 394.21 574.41 391.12C572.92 388.03 571.41 385.32 570.12 383.12C569.49 381.99 568.86 381 568.32 380.12C567.78 379.24 567.32 378.49 566.92 377.88L566.02 376.46C565.954 376.488 565.879 376.49 565.811 376.466C565.743 376.442 565.686 376.394 565.652 376.33C565.618 376.267 565.608 376.193 565.626 376.123C565.643 376.053 565.686 375.992 565.746 375.952C565.806 375.911 565.879 375.895 565.951 375.906C566.022 375.917 566.087 375.954 566.132 376.01C566.178 376.066 566.201 376.137 566.197 376.209C566.193 376.281 566.162 376.349 566.11 376.4L567.11 377.77C567.53 378.36 568.04 379.09 568.59 379.96C569.14 380.83 569.8 381.81 570.46 382.96C571.82 385.17 573.32 387.89 574.86 390.96C576.4 394.03 577.92 397.51 579.34 401.23C580.76 404.95 581.86 408.57 582.77 411.89C583.68 415.21 584.31 418.25 584.77 420.81C585.02 422.09 585.17 423.26 585.33 424.28C585.49 425.3 585.59 426.18 585.67 426.91C585.75 427.64 585.79 428.14 585.83 428.58C585.852 428.756 585.852 428.934 585.83 429.11Z" fill="#263238"/>
<path d="M622.02 421.79H561.99V434.04H622.02V421.79Z" fill="#263238"/>
<path d="M567.71 434.04L574.2 475.23H610.48L616.53 434.04H567.71Z" fill="#263238"/>
<path d="M618.34 434C618.34 434.14 606.98 434.26 592.98 434.26C578.98 434.26 567.61 434.14 567.61 434C567.61 433.86 578.97 433.74 592.98 433.74C606.99 433.74 618.34 433.89 618.34 434Z" fill="#455A64"/>
<path d="M419.54 108.55C419.54 108.55 408.43 112.35 407.05 119.75C405.67 127.15 404.13 137.3 404.13 137.3L420.93 136.36L419.54 108.55Z" fill="#F7941D"/>
<path d="M428.939 104.95L418.539 108.95L416.369 162.06L414.979 179.78H466.999L460.759 108.55L444.539 105.16L428.939 104.95Z" fill="#F7941D"/>
<path d="M474 134.93C474 134.93 471.39 110.05 460.76 108.55L456.29 125V134.91L474 134.93Z" fill="#F7941D"/>
<path d="M420.179 138.47C420.179 138.47 423.949 136.67 425.719 137.3C427.489 137.93 434.919 141.42 434.919 141.42L420.919 146.05L417.479 142.11L420.179 138.47Z" fill="#FFBE9D"/>
<g opacity="0.3">
<path d="M465.45 158.9C464.957 157.841 464.252 156.894 463.378 156.118C462.504 155.342 461.48 154.754 460.37 154.39C458.144 153.671 455.828 153.264 453.49 153.18L433.87 151.58C431.406 151.219 428.894 151.348 426.48 151.96C422.29 153.33 418.72 157.48 416.41 161.23V162.11C418.41 163.6 421.18 163.58 423.6 162.97C426.02 162.36 428.29 161.25 430.73 160.73C435.32 159.73 440.06 160.92 444.6 162.09L457.06 165.29C459.3 165.86 461.84 166.39 463.79 165.14C464.727 164.437 465.4 163.439 465.701 162.307C466.002 161.176 465.914 159.975 465.45 158.9Z" fill="black"/>
</g>
<path d="M405.46 137.3C405.46 137.3 404.99 155.51 408.91 158.87C412.83 162.23 415.25 161.68 419.54 161.12C423.83 160.56 448.45 148.23 448.45 148.23L445.84 139.42L420.28 144.1L420.15 136.36L405.46 137.3Z" fill="#FFBE9D"/>
<path d="M472 134.93C472 134.93 473.12 155.32 472 157.93C470.88 160.54 466.77 163.35 462.3 162.61C457.83 161.87 433.81 155.31 433.79 155.32C433.77 155.33 442.15 146.52 442.15 146.52L459.5 146.14L458.38 134.92L472 134.93Z" fill="#FFBE9D"/>
<path d="M458.34 137.3C453.5 133.83 445.84 139.42 445.84 139.42V140.35L447.76 146.67L459.46 146.15C459.46 146.15 461.45 139.53 458.34 137.3Z" fill="#FFBE9D"/>
<path d="M459.079 146.05C458.147 146.2 457.204 146.281 456.259 146.29C454.479 146.38 451.979 146.49 449.069 146.59H449.199C448.129 147.31 446.959 148.07 445.729 148.84C442.399 150.91 439.279 152.59 436.979 153.73C435.829 154.3 434.889 154.73 434.229 155.02C433.913 155.192 433.577 155.326 433.229 155.42C433.537 155.185 433.873 154.991 434.229 154.84L436.889 153.4C439.139 152.18 442.219 150.46 445.529 148.4C446.759 147.64 447.929 146.89 449.009 146.18H449.069H449.139C452.039 146.11 454.549 146.07 456.329 146.06C457.244 145.984 458.164 145.981 459.079 146.05Z" fill="#EB996E"/>
<path d="M458.34 134.93C458.542 135.783 458.663 136.654 458.7 137.53C458.85 139.14 459.03 141.36 459.19 143.82C459.24 144.59 459.29 145.33 459.33 146.03L459.23 145.85C460.521 146.837 461.666 148.002 462.63 149.31C463.054 149.803 463.392 150.364 463.63 150.97C462.256 149.226 460.689 147.643 458.96 146.25L458.87 146.18V146.06C458.82 145.36 458.77 144.62 458.71 143.86C458.55 141.4 458.43 139.17 458.37 137.55C458.273 136.68 458.263 135.802 458.34 134.93Z" fill="#EB996E"/>
<path d="M437.49 141C436.381 141.35 435.248 141.621 434.1 141.81C431.99 142.24 429.1 142.81 425.86 143.39L420.33 144.39L420.46 144.31C419.27 145.75 418.25 146.94 417.53 147.77C417.174 148.224 416.776 148.643 416.34 149.02C416.619 148.511 416.955 148.035 417.34 147.6C418 146.72 418.96 145.49 420.13 144.02L420.18 143.96H420.26L425.78 142.96C429.01 142.37 431.93 141.86 434.05 141.52C435.182 141.259 436.332 141.085 437.49 141Z" fill="#EB996E"/>
<path d="M420.15 136.36C420.43 137.626 420.541 138.924 420.48 140.22C420.587 141.516 420.52 142.821 420.28 144.1C420.002 142.83 419.891 141.529 419.95 140.23C419.842 138.937 419.91 137.635 420.15 136.36Z" fill="#EB996E"/>
<path d="M418.54 121.74C419.071 124.495 419.432 127.281 419.62 130.08C419.982 132.862 420.169 135.665 420.18 138.47C419.655 135.714 419.294 132.929 419.1 130.13C418.744 127.347 418.557 124.546 418.54 121.74Z" fill="#263238"/>
<path d="M459.22 119.87C459.356 122.597 459.313 125.329 459.09 128.05C459.048 130.781 458.834 133.506 458.45 136.21C458.313 133.484 458.353 130.751 458.57 128.03C458.618 125.299 458.836 122.574 459.22 119.87Z" fill="#263238"/>
<path d="M459.23 77.6C458.01 76.29 456.53 75.04 456.1 73.3C455.67 71.56 456.28 69.85 455.43 68.43C454.43 66.68 451.78 66.53 450.53 64.93C449.92 64.15 449.71 63.12 449.11 62.34C448.11 61.01 446.19 60.71 444.53 60.94C442.87 61.17 441.28 61.82 439.62 61.99C437.33 62.22 434.94 61.55 432.76 62.28C430.35 63.08 428.94 65.28 427.42 67.42L425.42 69.9C425.016 70.3339 424.567 70.7229 424.08 71.06C423.176 71.5607 422.322 72.1467 421.53 72.81C421.166 73.2204 420.889 73.6997 420.714 74.2195C420.539 74.7392 420.471 75.2887 420.513 75.8354C420.555 76.382 420.706 76.9147 420.958 77.4017C421.21 77.8886 421.558 78.32 421.98 78.67C421.117 79.0026 420.383 79.602 419.885 80.3808C419.386 81.1597 419.15 82.0774 419.21 83C419.379 84.0098 419.674 84.9942 420.09 85.93C420.501 86.8777 420.564 87.94 420.27 88.93C420.186 89.1687 420.055 89.3882 419.886 89.5758C419.716 89.7633 419.51 89.9151 419.281 90.0222C419.052 90.1293 418.804 90.1896 418.551 90.1996C418.299 90.2095 418.046 90.1688 417.81 90.08C417.988 90.7424 418.314 91.3561 418.762 91.8754C419.211 92.3948 419.77 92.8065 420.4 93.08C419.928 93.5899 419.282 93.904 418.59 93.96C420.59 98.28 425.72 100.42 430.46 100.29C435.2 100.16 439.69 98.21 444.04 96.29L456.7 92.54C457.82 92.25 458.24 90.86 458.19 89.71C457.968 88.574 457.968 87.406 458.19 86.27C458.7 84.78 460.39 83.94 460.93 82.45C461.54 80.75 460.46 78.92 459.23 77.6Z" fill="#263238"/>
<path d="M429.39 90.2799C428.293 87.4412 427.44 84.5139 426.84 81.5299C426.251 78.5372 426.412 75.4449 427.31 72.5299C427.46 72.0899 428.74 69.1499 429.2 69.1799C429.66 69.2099 428.76 71.9299 428.93 72.1799C430.497 74.9321 431.194 78.094 430.93 81.2499C430.746 84.2985 430.222 87.317 429.37 90.2499" fill="#263238"/>
<path d="M440.63 64.2202H439.93C432.32 64.4802 428.29 71.1002 428.76 78.7102L428.94 104.97C428.953 107.255 429.843 109.448 431.427 111.095C433.011 112.742 435.167 113.718 437.45 113.82C438.631 113.872 439.81 113.689 440.919 113.281C442.029 112.873 443.046 112.248 443.911 111.443C444.777 110.638 445.474 109.669 445.961 108.592C446.448 107.515 446.716 106.352 446.75 105.17C446.75 103.79 446.82 102.82 446.83 102.82C446.84 102.82 454.16 101.82 454.43 94.5502C454.56 91.0202 454.24 83.7202 453.87 77.1102C453.687 73.6907 452.223 70.4653 449.77 68.0765C447.316 65.6877 444.053 64.3109 440.63 64.2202Z" fill="#FFBE9D"/>
<path d="M446.829 102.8C443.463 102.725 440.19 101.684 437.399 99.7998C437.399 99.7998 439.579 105.18 446.879 104.7L446.829 102.8Z" fill="#EB996E"/>
<path d="M450.74 83.0801C450.74 83.3453 450.635 83.5996 450.447 83.7872C450.26 83.9747 450.005 84.0801 449.74 84.0801C449.475 84.0801 449.221 83.9747 449.033 83.7872C448.846 83.5996 448.74 83.3453 448.74 83.0801C448.74 82.8149 448.846 82.5605 449.033 82.373C449.221 82.1854 449.475 82.0801 449.74 82.0801C450.005 82.0801 450.26 82.1854 450.447 82.373C450.635 82.5605 450.74 82.8149 450.74 83.0801Z" fill="#263238"/>
<path d="M452.24 80.0899C452.1 80.2299 451.33 79.6199 450.24 79.5999C449.15 79.5799 448.24 80.1099 448.16 79.9699C448.08 79.8299 448.24 79.6699 448.61 79.4099C449.101 79.0855 449.681 78.9213 450.27 78.9399C450.853 78.9583 451.415 79.1575 451.88 79.5099C452.19 79.7799 452.3 79.9999 452.24 80.0899Z" fill="#263238"/>
<path d="M440.23 83.0799C440.23 83.3451 440.124 83.5994 439.937 83.787C439.749 83.9745 439.495 84.0799 439.23 84.0799C439.094 84.0866 438.959 84.0658 438.832 84.0186C438.704 83.9714 438.588 83.8988 438.49 83.8053C438.392 83.7117 438.314 83.5992 438.26 83.4745C438.207 83.3498 438.18 83.2155 438.18 83.0799C438.18 82.8146 438.285 82.5603 438.473 82.3728C438.66 82.1852 438.914 82.0799 439.18 82.0799C439.315 82.0731 439.451 82.0939 439.578 82.1411C439.705 82.1883 439.821 82.2609 439.919 82.3545C440.018 82.448 440.096 82.5606 440.149 82.6853C440.202 82.81 440.23 82.9442 440.23 83.0799Z" fill="#263238"/>
<path d="M441.24 80.2701C441.11 80.4101 440.33 79.8001 439.24 79.7801C438.15 79.7601 437.29 80.2901 437.17 80.1501C437.05 80.0101 437.24 79.8501 437.61 79.5901C438.105 79.2655 438.688 79.1014 439.28 79.1201C439.862 79.1384 440.425 79.3376 440.89 79.6901C441.19 80.0001 441.31 80.2101 441.24 80.2701Z" fill="#263238"/>
<path d="M445.05 88.9999C445.644 88.8243 446.26 88.7269 446.88 88.7099C447.17 88.7099 447.44 88.6399 447.49 88.4399C447.52 88.1459 447.46 87.8497 447.32 87.5899C447.07 86.8899 446.81 86.1499 446.53 85.3799C445.786 83.5081 445.197 81.5782 444.77 79.6099C445.663 81.4236 446.409 83.3063 447 85.2399C447.26 86.0199 447.51 86.7599 447.75 87.4599C447.921 87.8107 447.966 88.2094 447.88 88.5899C447.836 88.6917 447.768 88.7819 447.683 88.8531C447.598 88.9243 447.498 88.9746 447.39 88.9999C447.232 89.0371 447.071 89.0572 446.91 89.0599C446.289 89.1135 445.665 89.0934 445.05 88.9999Z" fill="#263238"/>
<path d="M441.73 89.7102C441.91 89.7102 441.88 90.9302 442.91 91.8202C443.94 92.7102 445.22 92.6102 445.23 92.8202C445.24 93.0302 444.93 93.0502 444.39 93.0502C443.675 93.0382 442.987 92.7804 442.44 92.3202C441.923 91.8678 441.601 91.234 441.54 90.5502C441.5 90.0002 441.65 89.7002 441.73 89.7102Z" fill="#263238"/>
<path d="M441.29 75.7103C441.17 76.0103 440.06 75.8403 438.74 75.9703C437.42 76.1003 436.35 76.4203 436.18 76.1503C436.01 75.8803 436.3 75.7303 436.73 75.4403C437.311 75.0906 437.965 74.8817 438.64 74.8303C439.32 74.7604 440.006 74.8564 440.64 75.1103C441.11 75.3203 441.34 75.5703 441.29 75.7103Z" fill="#263238"/>
<path d="M451.87 76.3402C451.66 76.5902 450.87 76.3402 449.97 76.2702C449.07 76.2002 448.25 76.4002 448.07 76.1302C447.89 75.8602 448.13 75.7502 448.48 75.5102C448.945 75.2273 449.487 75.0946 450.03 75.1302C450.575 75.1522 451.1 75.3446 451.53 75.6802C451.86 76.0002 452 76.2202 451.87 76.3402Z" fill="#263238"/>
<path d="M429.22 84.1203C429.09 84.0703 424.22 82.5103 424.28 87.5203C424.34 92.5303 429.28 91.4603 429.28 91.3103C429.28 91.1603 429.22 84.1203 429.22 84.1203Z" fill="#FFBE9D"/>
<path d="M427.789 89.4302C427.789 89.4302 427.699 89.4902 427.549 89.5602C427.34 89.6384 427.109 89.6384 426.899 89.5602C426.577 89.3556 426.315 89.0692 426.139 88.7301C425.963 88.3911 425.881 88.0116 425.899 87.6302C425.887 87.201 425.969 86.7743 426.139 86.3802C426.184 86.2222 426.266 86.0776 426.379 85.959C426.493 85.8404 426.634 85.7515 426.789 85.7002C426.889 85.6742 426.995 85.6839 427.088 85.7278C427.181 85.7717 427.256 85.8468 427.299 85.9402C427.369 86.0802 427.299 86.1802 427.369 86.1902C427.439 86.2002 427.469 86.1002 427.429 85.8902C427.398 85.7678 427.328 85.659 427.229 85.5802C427.09 85.4822 426.919 85.4395 426.749 85.4602C426.545 85.5016 426.355 85.5951 426.197 85.7318C426.039 85.8685 425.919 86.0436 425.849 86.2402C425.638 86.6758 425.535 87.1561 425.549 87.6402C425.528 88.0859 425.639 88.5279 425.869 88.9105C426.099 89.2931 426.436 89.5992 426.839 89.7902C426.973 89.828 427.114 89.8351 427.251 89.8108C427.387 89.7866 427.517 89.7317 427.629 89.6502C427.779 89.5502 427.799 89.4402 427.789 89.4302Z" fill="#EB996E"/>
<path d="M450.51 68.85C451.31 68.39 448.85 65.85 446.85 64.94C443.85 63.62 439.23 62.85 436.47 63.68C433.16 64.68 430.42 66.39 428.79 69.45C427.242 72.577 426.552 76.0589 426.79 79.54C426.77 80.5888 427.029 81.624 427.54 82.54C428.25 83.64 429.6 84.31 429.54 85.84C429.523 86.1167 429.562 86.3941 429.654 86.6554C429.747 86.9166 429.892 87.1563 430.08 87.36C431.01 88.36 432.08 87.36 432.61 86.46C433.68 84.46 433.76 82.14 433.82 79.89C433.958 78.296 433.826 76.6903 433.43 75.14C433.18 74.3 432.77 73.52 432.56 72.68C432.429 72.2638 432.389 71.8244 432.443 71.3914C432.496 70.9584 432.642 70.5419 432.87 70.17C432.995 70.0256 433.129 69.8887 433.27 69.76C433.955 69.139 434.794 68.7124 435.7 68.5243C436.605 68.3362 437.544 68.3934 438.42 68.69C441.25 69.69 446.07 71.05 447.31 70.08C448.194 69.4691 448.943 68.6828 449.51 67.77L450.51 68.85Z" fill="#263238"/>
<path d="M436.72 63C438.077 62.4896 439.523 62.2558 440.973 62.3125C442.422 62.3692 443.846 62.7151 445.16 63.33C445.866 63.6391 446.502 64.0882 447.03 64.6503C447.557 65.2123 447.966 65.8756 448.23 66.6C448.466 67.335 448.438 68.1298 448.149 68.8461C447.861 69.5624 447.33 70.1547 446.65 70.5199L446.55 70.58C444.44 71.33 443.05 71.07 440.91 70.37C439.11 69.77 437.51 68.69 435.71 68.11C433.782 67.489 431.713 67.4612 429.77 68.03C431.601 65.7684 433.999 64.0328 436.72 63Z" fill="#263238"/>
<path d="M195.79 429.21L183.18 449.51C183.18 449.51 199.58 469.15 197.61 473.13L157.37 450.13L175.73 417.69L195.79 429.21Z" fill="#455A64"/>
<path d="M171.74 440.64C171.285 440.536 170.807 440.604 170.399 440.831C169.991 441.058 169.681 441.428 169.53 441.87C169.407 442.319 169.462 442.799 169.684 443.209C169.905 443.618 170.277 443.927 170.72 444.07C171.202 444.178 171.706 444.103 172.136 443.861C172.566 443.62 172.892 443.227 173.05 442.76C173.127 442.279 173.015 441.786 172.737 441.386C172.459 440.985 172.038 440.707 171.56 440.61" fill="#E0E0E0"/>
<g opacity="0.6">
<path d="M157.37 450.09L159.37 446.89L197.21 470.17C197.21 470.17 198.56 471.98 197.63 473.17L157.37 450.09Z" fill="white"/>
</g>
<path d="M184 449.68C183.88 449.87 182.85 449.4 181.52 449.48C180.19 449.56 179.2 450.09 179.07 449.91C178.94 449.73 179.87 448.76 181.48 448.69C183.09 448.62 184.09 449.52 184 449.68Z" fill="#263238"/>
<path d="M187.17 453.84C187.11 454.06 186.06 453.91 184.92 454.35C183.78 454.79 183.08 455.57 182.92 455.45C182.76 455.33 183.24 454.15 184.67 453.62C186.1 453.09 187.27 453.65 187.17 453.84Z" fill="#263238"/>
<path d="M186.67 460.27C186.47 460.2 186.76 459.07 187.88 458.27C189 457.47 190.17 457.58 190.16 457.79C190.15 458 189.25 458.25 188.34 458.91C187.43 459.57 186.88 460.36 186.67 460.27Z" fill="#263238"/>
<path d="M186.31 444.74C186.12 444.87 185.38 444.08 184.22 443.52C183.06 442.96 182 442.81 182 442.59C182 442.37 183.23 442.14 184.58 442.81C185.93 443.48 186.49 444.64 186.31 444.74Z" fill="#263238"/>
<path d="M194 437.55L192.64 461.41C192.64 461.41 216.44 470.8 216.64 475.24L170.29 474.24L170.88 436.98L194 437.55Z" fill="#455A64"/>
<path d="M178.391 459.1C177.943 459.229 177.558 459.516 177.308 459.908C177.058 460.3 176.959 460.77 177.031 461.23C177.143 461.683 177.423 462.076 177.816 462.329C178.208 462.582 178.682 462.675 179.141 462.59C179.614 462.454 180.021 462.149 180.283 461.732C180.545 461.315 180.644 460.816 180.561 460.33C180.401 459.868 180.067 459.486 179.63 459.265C179.193 459.045 178.688 459.004 178.221 459.15" fill="#E0E0E0"/>
<g opacity="0.6">
<path d="M170.3 474.26L170.51 470.51L214.87 472.85C214.87 472.85 216.87 473.79 216.65 475.24L170.3 474.26Z" fill="white"/>
</g>
<path d="M193.44 461.19C193.44 461.42 192.29 461.5 191.16 462.19C190.03 462.88 189.42 463.83 189.21 463.74C189 463.65 189.37 462.34 190.75 461.52C192.13 460.7 193.49 461 193.44 461.19Z" fill="#263238"/>
<path d="M198.26 463.3C198.26 463.52 197.32 463.89 196.53 464.83C195.74 465.77 195.53 466.78 195.27 466.76C195.01 466.74 194.93 465.47 195.93 464.31C196.93 463.15 198.26 463.09 198.26 463.3Z" fill="#263238"/>
<path d="M200.901 469.18C200.691 469.18 200.401 468.09 201.011 466.86C201.621 465.63 202.681 465.16 202.771 465.35C202.861 465.54 202.201 466.19 201.711 467.21C201.221 468.23 201.121 469.16 200.901 469.18Z" fill="#263238"/>
<path d="M193.14 455.72C193.04 455.92 192.01 455.59 190.73 455.65C189.45 455.71 188.44 456.09 188.33 455.89C188.22 455.69 189.19 454.89 190.7 454.89C192.21 454.89 193.26 455.54 193.14 455.72Z" fill="#263238"/>
<path d="M233.85 285.26C233.85 285.26 230.74 360.85 228.85 367.88C226.96 374.91 187.69 446.77 187.69 446.77L164 435.15L195.4 359.26V286L233.85 285.26Z" fill="#263238"/>
<path d="M173.14 285.26C173.14 285.26 170.65 303.65 171.93 305.57C173.21 307.49 175.45 313.57 175.45 313.57L173.52 372.67L167.78 459.56H195.38L207.23 382.94C207.23 382.94 211.38 375.94 212.98 369.84C214.58 363.74 223.98 303.39 223.98 303.39V280.1L173.14 285.26Z" fill="#263238"/>
<path d="M227.05 288.49C227.065 288.64 227.065 288.79 227.05 288.94C227.05 289.26 226.94 289.69 226.87 290.24C226.69 291.42 226.43 293.11 226.11 295.24L223.21 313.7C221.97 321.5 220.49 330.78 218.85 341.07C218.01 346.22 217.18 351.63 216.22 357.23C215.301 363.034 213.862 368.744 211.92 374.29C209.84 379.96 206.92 385.13 205.92 390.72C204.73 396.25 203.92 401.67 203.1 406.82C201.54 417.13 200.28 426.44 199.21 434.26C198.14 442.08 197.28 448.4 196.62 452.76C196.29 454.95 196.03 456.64 195.82 457.76C195.72 458.31 195.63 458.76 195.57 459.06C195.553 459.21 195.519 459.357 195.47 459.5C195.475 459.349 195.492 459.199 195.52 459.05C195.52 458.73 195.63 458.3 195.7 457.74C195.87 456.56 196.1 454.87 196.4 452.74C196.97 448.34 197.79 442.02 198.81 434.21C199.83 426.4 201.04 417.07 202.57 406.75C203.37 401.59 204.19 396.17 205.37 390.61C206.37 384.93 209.37 379.71 211.43 374.1C213.366 368.573 214.801 362.884 215.72 357.1C216.72 351.51 217.53 346.1 218.38 340.96C220.07 330.67 221.59 321.4 222.86 313.61C224.13 305.82 225.21 299.56 225.94 295.17L226.8 290.17L227.04 288.87C227.033 288.743 227.037 288.616 227.05 288.49Z" fill="#455A64"/>
<path d="M170.86 412.88C170.912 413.489 170.912 414.101 170.86 414.71C170.86 415.89 170.74 417.58 170.62 419.71C170.39 423.91 169.97 429.71 169.48 436.1C168.99 442.49 168.58 448.29 168.31 452.48C168.17 454.48 168.06 456.18 167.98 457.48C167.969 458.091 167.906 458.7 167.79 459.3C167.738 458.691 167.738 458.079 167.79 457.47C167.79 456.3 167.85 454.59 167.93 452.47C168.1 448.27 168.46 442.47 168.93 436.07C169.4 429.67 169.93 423.98 170.24 419.7C170.41 417.7 170.55 416.01 170.66 414.7C170.686 414.09 170.753 413.482 170.86 412.88Z" fill="#455A64"/>
<path d="M233.56 127.6C231.77 125.67 229.56 123.85 228.97 121.3C228.4 118.94 229.23 116.3 227.97 114.17C226.45 111.61 222.64 111.4 220.81 109.05C219.92 107.92 219.61 106.41 218.73 105.27C217.24 103.27 214.45 102.88 212.02 103.27C209.59 103.66 207.27 104.56 204.84 104.81C201.49 105.15 197.99 104.16 194.84 105.23C191.32 106.4 189.25 109.62 187.03 112.75L184.13 116.38C183.524 117.015 182.854 117.585 182.13 118.08C180.805 118.812 179.552 119.67 178.39 120.64C177.862 121.241 177.46 121.942 177.207 122.701C176.954 123.46 176.856 124.262 176.917 125.059C176.979 125.857 177.199 126.634 177.565 127.345C177.932 128.056 178.436 128.687 179.05 129.2C177.778 129.688 176.695 130.571 175.961 131.719C175.227 132.867 174.879 134.22 174.97 135.58C175.222 137.054 175.655 138.492 176.26 139.86C176.863 141.247 176.952 142.804 176.51 144.25C175.96 145.64 174.24 146.63 172.92 145.94C173.189 146.9 173.667 147.788 174.321 148.54C174.974 149.292 175.787 149.89 176.7 150.29C176.014 151.036 175.07 151.493 174.06 151.57C176.98 157.89 184.49 161.02 191.43 160.83C198.37 160.64 204.94 157.78 211.29 154.97L229.83 149.49C231.46 149.06 232.07 147.03 232 145.35C231.93 143.67 231.43 141.92 232 140.35C232.76 138.16 235.23 136.93 236 134.75C236.93 132.2 235.35 129.53 233.56 127.6Z" fill="#263238"/>
<path d="M189.89 146.15C188.284 141.998 187.039 137.716 186.17 133.35C185.301 128.962 185.535 124.426 186.85 120.15C187.06 119.52 188.94 115.22 189.61 115.26C190.09 115.26 188.97 119.26 189.23 119.7C191.534 123.733 192.559 128.371 192.17 133C191.9 137.464 191.136 141.885 189.89 146.18" fill="#263238"/>
<path d="M206.34 108H205.34C194.21 108.38 188.34 118.06 189 129.2L189.27 167.62C189.282 170.969 190.579 174.185 192.894 176.604C195.21 179.023 198.366 180.461 201.71 180.62C203.441 180.702 205.17 180.437 206.797 179.841C208.423 179.245 209.914 178.33 211.182 177.15C212.45 175.969 213.469 174.547 214.18 172.968C214.891 171.388 215.278 169.682 215.32 167.95C215.38 165.95 215.43 164.52 215.44 164.52C215.45 164.52 226.16 163.12 226.56 152.41C226.75 147.24 226.28 136.56 225.74 126.91C225.487 121.893 223.348 117.156 219.75 113.649C216.152 110.143 211.363 108.125 206.34 108Z" fill="#FFBE9D"/>
<path d="M215.41 164.47C210.478 164.329 205.689 162.778 201.61 160C201.61 160 204.61 167.91 215.31 167.21L215.41 164.47Z" fill="#EB996E"/>
<path d="M223.06 135.61C223.055 136.009 222.894 136.39 222.612 136.672C222.33 136.954 221.949 137.115 221.55 137.12C221.354 137.131 221.159 137.103 220.974 137.037C220.79 136.971 220.621 136.869 220.476 136.736C220.332 136.604 220.215 136.444 220.134 136.266C220.052 136.088 220.006 135.896 220 135.7C220.008 135.302 220.169 134.923 220.451 134.641C220.732 134.359 221.112 134.198 221.51 134.19C221.706 134.179 221.901 134.208 222.086 134.274C222.27 134.34 222.439 134.442 222.584 134.574C222.728 134.706 222.845 134.866 222.926 135.044C223.008 135.222 223.054 135.414 223.06 135.61Z" fill="#263238"/>
<path d="M223.321 131.24C223.131 131.44 221.991 130.55 220.321 130.51C218.651 130.47 217.461 131.27 217.321 131.06C217.181 130.85 217.431 130.62 217.971 130.25C218.689 129.772 219.538 129.531 220.401 129.56C221.256 129.577 222.083 129.868 222.761 130.39C223.261 130.79 223.421 131.15 223.321 131.24Z" fill="#263238"/>
<path d="M207.28 135.61C207.275 136.009 207.115 136.39 206.832 136.672C206.55 136.954 206.169 137.115 205.77 137.12C205.576 137.13 205.381 137.1 205.198 137.034C205.015 136.967 204.846 136.865 204.703 136.733C204.56 136.6 204.444 136.441 204.363 136.264C204.282 136.087 204.237 135.895 204.23 135.7C204.238 135.302 204.4 134.922 204.681 134.641C204.963 134.359 205.342 134.198 205.74 134.19C205.935 134.181 206.13 134.21 206.313 134.277C206.496 134.343 206.664 134.446 206.808 134.578C206.951 134.71 207.067 134.869 207.148 135.046C207.229 135.224 207.274 135.415 207.28 135.61Z" fill="#263238"/>
<path d="M207.23 131.51C207.04 131.7 205.9 130.82 204.23 130.78C202.56 130.74 201.37 131.53 201.23 131.33C201.09 131.13 201.34 130.88 201.88 130.51C202.602 130.034 203.455 129.796 204.32 129.83C205.17 129.847 205.994 130.134 206.67 130.65C207.17 131.05 207.33 131.42 207.23 131.51Z" fill="#263238"/>
<path d="M212.81 144.3C213.678 144.041 214.576 143.9 215.48 143.88C215.9 143.88 216.3 143.77 216.38 143.49C216.428 143.058 216.341 142.621 216.13 142.24C215.76 141.24 215.38 140.13 214.97 139.01C213.36 134.41 212.21 130.63 212.4 130.57C212.59 130.51 214.03 134.18 215.64 138.78C216.03 139.91 216.4 140.99 216.75 142.03C217 142.543 217.063 143.126 216.93 143.68C216.863 143.826 216.765 143.955 216.642 144.059C216.519 144.162 216.375 144.238 216.22 144.28C215.987 144.333 215.749 144.359 215.51 144.36C214.611 144.453 213.704 144.433 212.81 144.3Z" fill="#263238"/>
<path d="M208 145.31C208.27 145.31 208.23 147.09 209.72 148.4C211.21 149.71 213.11 149.55 213.12 149.8C213.13 150.05 212.69 150.14 211.89 150.14C210.844 150.131 209.834 149.752 209.04 149.07C208.282 148.414 207.808 147.489 207.72 146.49C207.62 145.74 207.83 145.3 208 145.31Z" fill="#263238"/>
<path d="M207.31 124.83C207.14 125.27 205.5 125.02 203.57 125.2C201.64 125.38 200.07 125.87 199.83 125.47C199.72 125.27 200 124.86 200.64 124.47C201.484 123.95 202.441 123.641 203.43 123.57C204.419 123.475 205.416 123.615 206.34 123.98C207 124.26 207.38 124.62 207.31 124.83Z" fill="#263238"/>
<path d="M222.78 125.76C222.48 126.12 221.36 125.71 220 125.65C218.64 125.59 217.49 125.84 217.23 125.44C217.12 125.25 217.31 124.88 217.82 124.54C218.505 124.131 219.297 123.937 220.094 123.981C220.89 124.026 221.655 124.308 222.29 124.79C222.76 125.19 222.91 125.58 222.78 125.76Z" fill="#263238"/>
<path d="M189.64 137.14C189.46 137.06 182.36 134.78 182.41 142.14C182.46 149.5 189.79 147.9 189.8 147.69C189.81 147.48 189.64 137.14 189.64 137.14Z" fill="#FFBE9D"/>
<path d="M187.551 144.9C187.551 144.9 187.421 144.99 187.201 145.09C186.896 145.215 186.555 145.215 186.251 145.09C185.777 144.79 185.392 144.37 185.134 143.873C184.876 143.376 184.754 142.819 184.781 142.26C184.755 141.632 184.871 141.007 185.121 140.43C185.185 140.198 185.305 139.986 185.471 139.812C185.637 139.637 185.843 139.506 186.071 139.43C186.216 139.391 186.37 139.404 186.506 139.466C186.643 139.528 186.754 139.635 186.821 139.77C186.921 139.98 186.881 140.12 186.921 140.14C186.961 140.16 187.071 140.01 187.011 139.71C186.97 139.528 186.867 139.365 186.721 139.25C186.518 139.105 186.268 139.041 186.021 139.07C185.719 139.132 185.438 139.27 185.206 139.472C184.973 139.673 184.795 139.931 184.691 140.22C184.393 140.844 184.249 141.529 184.271 142.22C184.271 143.7 185.091 145.07 186.151 145.37C186.347 145.424 186.552 145.434 186.753 145.4C186.954 145.365 187.144 145.287 187.311 145.17C187.531 145.08 187.571 144.91 187.551 144.9Z" fill="#EB996E"/>
<path d="M220.8 114.8C221.97 114.12 218.36 110.34 215.43 109.06C211.01 107.14 204.29 106.06 200.26 107.23C195.41 108.69 191.39 111.23 189.02 115.68C186.726 120.246 185.69 125.341 186.02 130.44C185.978 131.999 186.358 133.54 187.12 134.9C188.12 136.5 190.12 137.49 190.12 139.72C190.083 140.54 190.37 141.341 190.92 141.95C192.28 143.35 193.92 141.95 194.62 140.63C196.18 137.74 196.31 134.31 196.4 131.02C196.594 128.671 196.398 126.306 195.82 124.02C195.45 122.81 194.82 121.66 194.55 120.43C194.356 119.822 194.296 119.178 194.376 118.545C194.455 117.911 194.671 117.302 195.01 116.76C195.186 116.541 195.38 116.337 195.59 116.15C196.593 115.244 197.819 114.622 199.143 114.348C200.467 114.073 201.839 114.157 203.12 114.59C207.26 115.98 214.32 118.05 216.12 116.59C217.416 115.7 218.513 114.548 219.34 113.21L220.8 114.8Z" fill="#263238"/>
<path d="M200.62 106.23C202.608 105.487 204.723 105.147 206.843 105.229C208.964 105.312 211.046 105.815 212.97 106.71C214.002 107.167 214.93 107.828 215.7 108.653C216.47 109.478 217.065 110.45 217.45 111.51C218.1 113.66 217.22 116.35 215.15 117.23L215.01 117.32C211.91 118.43 209.88 118.04 206.75 117.01C204.12 116.14 201.75 114.56 199.14 113.71C196.321 112.801 193.294 112.759 190.45 113.59C193.134 110.285 196.642 107.746 200.62 106.23Z" fill="#263238"/>
<path d="M174.11 228.07C173.68 237.07 171.11 288.42 171.11 288.42C182.874 292.256 195.319 293.548 207.62 292.21C227.19 289.81 235.49 293.55 235.49 293.55L229.76 204L215.1 169.78C215.1 169.78 194.65 167 189.24 167.61C187.3 168.828 185.454 170.192 183.72 171.69C178.23 177.95 174.49 191.28 174.29 202.4L174.11 228.07Z" fill="#F7941D"/>
<g opacity="0.3">
<path d="M205.07 206.83C199.66 202.19 192.32 204.22 188.62 198.13C192.69 208.447 197.712 218.364 203.62 227.75C203.94 228.391 204.45 228.918 205.08 229.26C206.51 229.84 207.89 228.42 209.19 227.59C211.61 226.04 214.85 226.44 217.44 227.71C220.03 228.98 222.15 230.97 224.44 232.71C226.73 234.45 229.44 235.87 232.32 235.78C224.285 225.194 215.151 215.49 205.07 206.83Z" fill="black"/>
</g>
<path d="M227 201.41L240.74 214L255.61 180.17L268.18 184.38C268.18 184.38 254.68 234.38 251.18 238.24C246.39 243.47 238.5 242.76 234.37 239.09C229.63 234.88 211.91 217.39 211.91 217.39L227 201.41Z" fill="#FFBE9D"/>
<path d="M240.74 222.31C240.372 220.925 240.237 219.489 240.34 218.06C240.273 216.626 240.442 215.19 240.84 213.81C240.955 215.224 240.955 216.646 240.84 218.06C240.912 219.477 240.879 220.898 240.74 222.31Z" fill="#EB996E"/>
<path d="M254.82 183.54L257.44 166.63C257.531 166.065 257.831 165.555 258.28 165.2L259.4 164.31C259.4 164.31 259.26 164.08 261.26 161.47C263.26 158.86 266.11 158.89 266.82 160.38C266.82 160.38 270.55 158.45 271.37 161.13C271.85 162.7 270.37 164.87 270.37 164.87C270.37 164.87 273.83 165.97 272.47 170.24C272.47 170.24 274.33 170.24 272.61 174.87C271.87 176.87 266.7 187.25 266.7 187.25L254.82 183.54Z" fill="#FFBE9D"/>
<path d="M245.241 170.55C245.294 170.725 245.384 170.886 245.505 171.024C245.625 171.161 245.773 171.272 245.939 171.348C246.106 171.425 246.286 171.465 246.469 171.467C246.652 171.469 246.833 171.433 247.001 171.36L264.371 163.92L266.661 160.48L246.001 169C245.706 169.121 245.466 169.345 245.326 169.631C245.186 169.916 245.156 170.243 245.241 170.55Z" fill="#263238"/>
<path d="M271.17 163.5C270.883 164.547 270.427 165.54 269.82 166.44C268.93 168.01 267.77 169 267.67 168.87C267.57 168.74 268.5 167.7 269.37 166.17C269.833 165.195 270.44 164.294 271.17 163.5Z" fill="#EB996E"/>
<path d="M262.08 167.48C262.659 166.152 263.398 164.9 264.28 163.75C265.016 162.508 265.895 161.357 266.9 160.32C266.323 161.647 265.587 162.9 264.71 164.05C263.973 165.295 263.091 166.446 262.08 167.48Z" fill="#EB996E"/>
<path d="M271.18 172.17C271.08 172.06 271.43 171.56 271.8 170.92C272.17 170.28 272.46 169.74 272.6 169.78C272.74 169.82 272.67 170.49 272.25 171.19C271.83 171.89 271.28 172.27 271.18 172.17Z" fill="#EB996E"/>
<path d="M228.7 199.74L206.35 223.27C198.19 215.48 190.76 203.06 186.95 192.69C185.629 188.923 185.373 184.864 186.21 180.96C187.16 177.52 188.21 176.53 190.59 174.52C190.59 174.52 197.8 168.76 207.82 177.66C213.91 183.06 228.7 199.74 228.7 199.74Z" fill="#F7941D"/>
<path d="M228.7 199.74C228.605 199.666 228.518 199.582 228.44 199.49L227.73 198.73L225 195.73C222.63 193.16 219.22 189.43 214.9 184.91C212.73 182.67 210.36 180.2 207.64 177.75C206.23 176.503 204.675 175.429 203.01 174.55C201.26 173.613 199.33 173.061 197.35 172.93C195.262 172.781 193.176 173.247 191.35 174.27C189.506 175.403 188.029 177.046 187.1 179C186.673 180.029 186.361 181.102 186.17 182.2C185.991 183.321 185.917 184.456 185.95 185.59C185.981 187.92 186.376 190.232 187.12 192.44C189.401 198.485 192.31 204.273 195.8 209.71C198.827 214.562 202.407 219.045 206.47 223.07H206.16L222.41 206.07L227 201.32L228.23 200.07L228.67 199.64C228.552 199.791 228.425 199.934 228.29 200.07L227.14 201.33L222.66 206.12C218.75 210.29 213.18 216.21 206.48 223.32L206.33 223.48L206.17 223.33C202.077 219.32 198.466 214.847 195.41 210C191.887 204.539 188.954 198.72 186.66 192.64C185.895 190.384 185.49 188.022 185.46 185.64C185.431 184.472 185.508 183.304 185.69 182.15C185.904 181.014 186.239 179.904 186.69 178.84C187.128 177.774 187.778 176.808 188.6 176C188.99 175.6 189.41 175.23 189.82 174.88L190.45 174.34C190.681 174.171 190.922 174.014 191.17 173.87C193.072 172.815 195.24 172.336 197.41 172.49C199.453 172.639 201.443 173.215 203.25 174.18C204.944 175.084 206.525 176.185 207.96 177.46C210.68 179.95 213.04 182.46 215.19 184.7C219.48 189.25 222.86 193.02 225.19 195.63C226.33 196.93 227.19 197.94 227.84 198.63C228.13 198.96 228.35 199.23 228.52 199.43C228.59 199.527 228.65 199.631 228.7 199.74Z" fill="#263238"/>
</svg>
